<?xml version="1.0" encoding="UTF-8"?>
<svg width="127px" height="127px" viewBox="0 0 127 127" version="1.1" xmlns="http://www.w3.org/2000/svg" xmlns:xlink="http://www.w3.org/1999/xlink">
    <title>Guarantee icone</title>
    <g id="Desktop" stroke="none" stroke-width="1" fill="none" fill-rule="evenodd">
        <g id="Home-Light-" transform="translate(-257.000000, -4236.000000)">
            <g id="Group-28" transform="translate(204.000000, 4182.000000)">
                <g id="Guarantee-icone" transform="translate(53.000000, 54.000000)">
                    <polygon id="Path" fill="#11255D" points="4.38966285 64.2849233 2.60873058 64.1930085 2.61456014 64.2703336 4.07049414 64.7372025 7.50265085 66.4544045 7.53325606 67.0088112 4.31096371 69.2001769 2.92935668 69.8392037 2.93372886 69.9121519 4.67239678 69.5474106 9.31127355 69.2877148 9.4045466 70.9480172 0.489683505 71.458655 0.400782631 69.8537933 4.34156893 67.2422457 5.33550986 66.7607872 5.33259507 66.7170182 4.26724197 66.39021 0.0874434831 64.3622484 0 62.7807302 8.9148631 62.2817641 9.01396571 64.0179326"></polygon>
                    <path d="M4.81813592,58.1237134 C5.26701246,58.180613 5.68236901,58.1922847 6.06712033,58.1645644 C6.45041427,58.1353851 6.78852907,58.0595189 7.07854995,57.9369658 C7.36857084,57.8144127 7.60466824,57.6407959 7.78684217,57.4146563 C7.96901609,57.1885167 8.08123523,56.9054774 8.12204218,56.5669975 C8.19928393,55.9513142 8.0185674,55.4435943 7.5784352,55.0452968 C7.13976039,54.6469994 6.38045948,54.3800087 5.30053246,54.2472429 C4.86914461,54.1918022 4.46398981,54.1786715 4.08361066,54.2034739 C3.70323151,54.2297353 3.36365931,54.3026836 3.06635147,54.4194008 C2.76758624,54.536118 2.52711666,54.7082759 2.33911317,54.9329565 C2.15402447,55.1590961 2.03889055,55.4494302 1.99371141,55.8024998 C1.91792706,56.419642 2.10593055,56.9288209 2.55626449,57.3271184 C3.00805582,57.7283338 3.76152716,57.9924065 4.81522113,58.1237134 M4.58932547,59.9488788 C3.112988,59.7650492 2.01557228,59.2981803 1.29853572,58.5482722 C0.582956554,57.7983641 0.298765234,56.8193985 0.448876546,55.6157522 C0.529033072,54.9825613 0.706834821,54.4412853 0.985196576,53.9963009 C1.26355833,53.5513165 1.62499139,53.196788 2.06803837,52.9341742 C2.51254275,52.6730195 3.0270019,52.4994026 3.61141585,52.4191595 C4.1958298,52.3374575 4.83270983,52.3389165 5.52497074,52.4264544 C7.00130821,52.6117429 8.09872392,53.0800708 8.81576048,53.8343558 C9.52988226,54.5886407 9.81553097,55.5646884 9.66541966,56.7668757 C9.58380574,57.4088204 9.40600399,57.9530144 9.12764224,58.3979988 C8.84928048,58.8429832 8.48784742,59.1975117 8.04480044,59.4542896 C7.60029607,59.7125264 7.08875169,59.8817664 6.50433775,59.9634684 C5.9199238,60.0451705 5.28158638,60.0422526 4.58932547,59.9561736" id="Shape" fill="#11255D"></path>
                    <polygon id="Path" fill="#11255D" points="6.53057079 47.7358814 4.98573593 48.0145437 4.96824723 48.0758202 6.37171513 48.2800754 10.8342475 49.6106516 10.3605954 51.2023826 1.7415827 48.6331449 2.10447316 47.4090732 7.63090129 45.5240902 9.13201441 45.2658533 9.14950311 45.2045768 7.78246999 45.0076165 3.28350279 43.6697454 3.7556976 42.0750965 12.3761676 44.6428752 12.0176494 45.8713239"></polygon>
                    <polygon id="Path" fill="#11255D" points="5.04986115 38.8653731 7.30007344 34.0639188 8.70937091 34.7262889 7.20097083 37.9389302 9.08829267 38.8216042 10.4553258 35.9036738 11.8646233 36.5631261 10.4873884 39.4810564 12.4665259 40.4060403 14.001159 37.1379584 15.4104565 37.8017875 13.1325538 42.6557646"></polygon>
                    <polygon id="Path" fill="#11255D" points="14.7225678 32.5363822 8.41935003 31.9061093 9.56048748 30.1699407 13.263719 30.6441044 14.1498129 31.0132226 14.1847903 30.9606998 13.4750407 30.2720683 11.5644006 27.1061139 12.5947763 25.5450211 15.6713296 31.0672043 18.4534897 32.8982056 17.4945262 34.3571708"></polygon>
                    <path d="M24.3909022,23.708184 C24.5410135,23.5622875 24.669264,23.4032603 24.7741961,23.2296434 C24.8805857,23.0574855 24.9505405,22.8809507 24.9840605,22.701498 C25.0204953,22.5205863 25.0132083,22.3411336 24.9694866,22.1616809 C24.9243075,21.9836872 24.8252048,21.8144472 24.6736361,21.656879 C24.4783457,21.4555418 24.2874274,21.3373656 24.0979665,21.2979735 C23.9085057,21.2585815 23.7205022,21.2687942 23.5324987,21.3256939 C23.3444952,21.3840525 23.1652361,21.4803442 22.9918065,21.61311 C22.8183769,21.7458758 22.6536917,21.8888544 22.4977508,22.0405868 L21.8404673,22.6766956 L23.5354135,24.4289128 C23.5762204,24.4114052 23.6330587,24.3749311 23.7044709,24.3165725 C23.775883,24.2596728 23.8516674,24.1954784 23.9303665,24.125448 C24.0076083,24.0554177 24.0892222,23.9839284 24.1722935,23.9080622 C24.2568222,23.832196 24.3282344,23.7650836 24.3894448,23.708184 M21.321636,21.3329887 C21.4061647,21.2483687 21.5023525,21.150618 21.6101994,21.0339008 C21.7180464,20.9186426 21.8011177,20.819433 21.8637855,20.7362719 C22.025556,20.438643 22.118829,20.1351783 22.1479769,19.8273366 C22.1756673,19.519495 22.0751073,19.2466685 21.8462968,19.0117751 C21.6947281,18.8527479 21.5373299,18.7535383 21.3784742,18.7097693 C21.2167038,18.6660004 21.0563907,18.6630824 20.8975351,18.6995566 C20.737222,18.7360307 20.5827385,18.806061 20.4297124,18.9052707 C20.2781437,19.0059393 20.133862,19.1241154 19.9939524,19.2612582 C19.8336393,19.4144495 19.6893576,19.5588871 19.5611072,19.6960298 C19.4328567,19.8331725 19.3381263,19.9440539 19.2754584,20.0257559 L20.9179385,21.7239914 L21.321636,21.3329887 M22.8446099,17.5280075 C22.9990934,17.6870347 23.131716,17.8650285 23.24685,18.0619888 C23.3605265,18.2589491 23.4363108,18.4675811 23.4727456,18.6878848 C23.5091804,18.9081886 23.5033509,19.1387051 23.4552569,19.3808933 C23.4057056,19.6230815 23.3022308,19.8696466 23.1433752,20.1176707 L23.1958413,20.1716524 C23.407163,20.0242969 23.6316013,19.9090387 23.8662413,19.8229597 C24.1008813,19.7383398 24.3428083,19.6989477 24.58765,19.7106194 C24.8339492,19.7222911 25.0802483,19.7850267 25.3280049,19.9002849 C25.574304,20.0170021 25.8191458,20.1993728 26.0625301,20.4503148 C26.3831562,20.7814999 26.5886484,21.1360284 26.6819215,21.5124414 C26.7751945,21.8903134 26.7781093,22.2711033 26.6906658,22.6518932 C26.6017649,23.0326831 26.4443667,23.4047192 26.2155562,23.7680016 C25.9867458,24.1312839 25.7142136,24.4668459 25.3965023,24.7761465 C25.2915701,24.8753561 25.1589475,25.005204 24.997177,25.1627723 C24.8354066,25.3188815 24.6561474,25.4837446 24.4623144,25.6559025 C24.2670239,25.8280604 24.0644465,25.9958414 23.8545822,26.1650813 C23.6432604,26.3328623 23.440683,26.474382 23.24685,26.5925581 L17.1243488,20.2606493 C17.221994,20.1293424 17.3371279,19.9819869 17.4697505,19.8200418 C17.6023731,19.6566377 17.7466549,19.4859388 17.9055105,19.307945 C18.0643662,19.1299513 18.2319662,18.9504986 18.4053958,18.7681279 C18.5802828,18.5872162 18.7566271,18.4106815 18.9329715,18.2399825 C19.2317367,17.9496485 19.5465332,17.6899527 19.8744463,17.4623541 C20.2023594,17.2318376 20.5346446,17.0669745 20.8683872,16.9663059 C21.2035872,16.8685553 21.5387873,16.8554246 21.8754447,16.9342087 C22.2106447,17.0115339 22.5327282,17.2099531 22.8402378,17.5280075" id="Shape" fill="#11255D"></path>
                    <path d="M28.9539946,17.0859411 L30.5075738,15.9669148 L28.8053407,14.7384661 L27.767678,13.7551236 L27.715212,13.7915977 L28.3258589,15.0988305 L28.9539946,17.0859411 M31.6385096,16.8831449 L29.4116155,18.4880066 L30.0193477,20.4897068 L28.6013059,21.5109824 L25.9517684,12.3267967 L26.996718,11.5710528 L34.8622593,16.9954852 L33.3713479,18.0692836 L31.6385096,16.881686" id="Shape" fill="#11255D"></path>
                    <path d="M40.8929448,13.4195616 C40.7428335,13.7186495 40.5009066,14.0031477 40.1671639,14.2730562 C39.8334213,14.5444238 39.4705309,14.7822351 39.07995,14.9879492 C38.6048404,15.2374322 38.1180717,15.4022953 37.6225586,15.4781615 C37.1212159,15.5554866 36.6198733,15.5146356 36.1258176,15.3570674 C35.6288472,15.1980402 35.147908,14.9091651 34.6815428,14.4875241 C34.2151775,14.0644242 33.7852471,13.4793792 33.3946662,12.733848 C32.9851392,11.9576785 32.753414,11.2529983 32.6922035,10.6139716 C32.6324505,9.97786279 32.6892887,9.40886637 32.8641757,8.90844132 C33.0376053,8.40801627 33.2999357,7.97762154 33.6482523,7.61579818 C33.9965688,7.25543378 34.3813201,6.96364075 34.8025063,6.74187804 C35.255755,6.50406672 35.6536228,6.3333678 35.9975672,6.22978127 C36.3415116,6.12473578 36.637362,6.06054131 36.8822038,6.03719787 L37.2654977,7.51075269 C37.0498038,7.51804751 36.812249,7.56619336 36.5542907,7.65373127 C36.2992472,7.73981022 36.000482,7.87257605 35.6609098,8.0505698 C35.0371463,8.38029593 34.6509376,8.8675903 34.503741,9.50953497 C34.3580019,10.1543976 34.5314315,10.9451567 35.0225724,11.8832713 C35.2353515,12.2903226 35.4772785,12.6390153 35.7439811,12.9264314 C36.0092263,13.2138475 36.2977898,13.4297744 36.6082142,13.571294 C36.9171812,13.7113547 37.2436368,13.7755491 37.5890386,13.7638774 C37.9329829,13.7522057 38.2856717,13.6486192 38.6471047,13.4604126 C38.9866769,13.2824189 39.2548369,13.0985893 39.4515848,12.9074648 C39.64979,12.7163404 39.8086457,12.522298 39.925237,12.3253377 L40.9031466,13.4181027" id="Path" fill="#11255D"></path>
                    <polygon id="Path" fill="#11255D" points="43.4317206 8.74941412 43.0017902 8.89968753 44.2551468 12.5018725 42.5937206 13.0796227 39.6643639 4.63659131 41.3257901 4.06321799 42.6228684 7.80254572 42.9434945 7.49908097 44.0365381 3.12218546 45.9165729 2.46856907 44.6836198 6.87464387 44.1968511 7.55889854 45.030479 7.7952509 49.2146497 10.7890474 47.1699295 11.4951866"></polygon>
                    <path d="M56.637144,4.75768541 L59.943965,4.37105965 L60.4059581,8.32923215 C60.085332,8.6662531 59.6874641,8.93178476 59.2079824,9.12436816 C58.729958,9.31841053 58.2504762,9.44242257 57.7680797,9.49786325 C57.2011544,9.56351668 56.6662918,9.53725531 56.160577,9.4161612 C55.6534048,9.29652605 55.2001561,9.06892749 54.8022882,8.7333655 C54.4044204,8.39926248 54.0706777,7.95136017 53.7996029,7.39257651 C53.5285281,6.83233388 53.3463542,6.15099715 53.2516238,5.34710734 C53.1539786,4.50966134 53.1918707,3.78309668 53.3638429,3.16741338 C53.5358151,2.55173008 53.7966882,2.03671538 54.1479195,1.62382823 C54.4976934,1.20948212 54.9072204,0.891427718 55.3779578,0.669665012 C55.8472378,0.447902307 56.3369213,0.306382685 56.8499231,0.246565114 C57.3556379,0.186747542 57.8059719,0.173616855 58.1994675,0.204255124 C58.5929632,0.236352357 58.9092171,0.280121312 59.1453145,0.338479919 L58.9602258,1.83829611 C58.7401597,1.77847854 58.495318,1.74054545 58.2286154,1.72595579 C57.9604553,1.70990718 57.6237979,1.72595579 57.2171857,1.77264268 C56.8542953,1.81495267 56.5278396,1.90832644 56.2363613,2.05422296 C55.9448831,2.20011947 55.7014987,2.41166942 55.5076656,2.68741384 C55.3123752,2.96169929 55.1768378,3.30309714 55.0995961,3.70577153 C55.0223543,4.10844591 55.0165248,4.58844546 55.08065,5.14722911 C55.1433178,5.6797514 55.2569943,6.1320306 55.4187648,6.50260776 C55.5819926,6.87464387 55.78457,7.1708138 56.0250396,7.39549444 C56.2640518,7.62017508 56.5336692,7.77628435 56.830977,7.86090433 C57.1268275,7.94552431 57.4372518,7.97032672 57.7578779,7.93239362 C57.9764867,7.90613225 58.1892658,7.85506847 58.394758,7.77336642 C58.6002502,7.6945823 58.7663928,7.59099577 58.8990154,7.4640658 L58.7022676,5.78917379 L56.7653944,5.8095993 L56.6429735,4.75622645" id="Path" fill="#11255D"></path>
                    <path d="M67.5296872,0.186747542 L69.1881986,0.249483044 L68.9681325,6.01823132 C68.9462716,6.59598153 68.8515412,7.09057072 68.6810264,7.5019989 C68.5134264,7.91342707 68.2860733,8.24898906 68.0062542,8.51014383 C67.7235202,8.77129859 67.383948,8.9595051 66.988995,9.07330438 C66.5940419,9.18710367 66.1611967,9.23233159 65.693374,9.21628297 C63.43296,9.13020403 62.3413738,8.05348773 62.420073,5.98613409 L62.647426,0 L64.3948383,0.0671123978 L64.1806018,5.70747174 C64.1674853,6.05616442 64.1878887,6.35233434 64.2418122,6.59889946 C64.2957357,6.84254664 64.3875514,7.04388383 64.520174,7.19707518 C64.6498818,7.35026652 64.8160244,7.46260684 65.0171444,7.5355551 C65.2197218,7.60704439 65.4572766,7.64789541 65.7283514,7.65810817 C66.2632141,7.67853368 66.6552523,7.54430889 66.9059237,7.25543378 C67.1551376,6.96801765 67.2921324,6.49093604 67.3183654,5.82710688 L67.5311446,0.186747542" id="Path" fill="#11255D"></path>
                    <path d="M73.650731,6.5215743 L75.5293085,6.88777456 L75.2611485,4.80729023 L75.266978,3.3760454 L75.2028528,3.36583264 L74.6679902,4.7037037 L73.650731,6.52303327 M75.6356981,8.34236283 L72.9453536,7.81567641 L71.9033187,9.62917011 L70.1879691,9.29506709 L75.065858,1.07525733 L76.3294164,1.32182244 L77.7620321,10.7744578 L75.9592389,10.4228472 L75.6371554,8.3438218" id="Shape" fill="#11255D"></path>
                    <path d="M84.1002272,5.02467604 C83.9326272,4.96485847 83.7650272,4.90941779 83.5988846,4.85835401 C83.432742,4.8087492 83.3001193,4.77811093 83.2039315,4.7708161 L82.3280393,7.21020586 L83.0246724,7.46114787 C83.4822933,7.62455197 83.8830759,7.65081334 84.229935,7.54139096 C84.5767942,7.4305096 84.8362099,7.13433967 85.008182,6.65434013 C85.1364325,6.29397574 85.1262307,5.97008547 84.9761194,5.68558726 C84.8245507,5.39963009 84.5330725,5.18078531 84.1002272,5.02467604 M82.0307314,2.8566538 C82.2274793,2.89021 82.4373436,2.93251999 82.6588671,2.98066584 C82.8803906,3.02881169 83.1004567,3.0827934 83.317608,3.14261097 C83.5347594,3.20242855 83.7475385,3.26662301 83.9486585,3.32789955 C84.1526933,3.39209402 84.337782,3.45337055 84.505382,3.51464709 C84.8974203,3.65616671 85.2705125,3.83124253 85.626116,4.03987455 C85.9817195,4.24850657 86.2761126,4.49653065 86.5136673,4.77956989 C86.7497648,5.0640681 86.9027908,5.39233526 86.9727456,5.76583035 C87.041243,6.13932543 86.9931491,6.55804843 86.8270065,7.02345832 C86.5807074,7.71354885 86.2178169,8.21543286 85.7441647,8.53348727 C85.2690551,8.85154168 84.7327351,8.9974382 84.1352046,8.97263579 L84.5913681,9.55768082 L85.3594134,13.4560358 L83.4648046,12.774699 L82.7361089,8.79464204 L81.9287141,8.32777318 L80.6899314,11.7753079 L79.0459939,11.1858859 L82.0321888,2.8566538" id="Shape" fill="#11255D"></path>
                    <path d="M89.7840536,11.9401709 L91.4731702,12.8403524 L91.8229442,10.7700809 L92.2455877,9.40448948 L92.1887494,9.37385121 L91.2866241,10.4987134 L89.7840536,11.9401709 M91.1510867,14.2599256 L88.7303596,12.9687414 L87.2044709,14.3985272 L85.6625508,13.5756709 L92.7250694,7.1416345 L93.8618347,7.74710505 L92.4729407,17.2070352 L90.8523215,16.3433278 L91.1510867,14.2599256" id="Shape" fill="#11255D"></path>
                    <polygon id="Path" fill="#11255D" points="98.1494802 15.5700763 98.4409584 14.0191963 98.3826628 13.990017 97.7006036 15.2315964 94.890753 18.9475806 93.5732712 17.9452716 98.9947672 10.7671629 100.014941 11.5389555 99.8400542 17.3748162 99.5485759 18.8717145 99.6068715 18.9111065 100.262698 17.6972475 103.090037 13.9564608 104.416263 14.952934 98.9947672 22.1310426 97.9745932 21.3680039"></polygon>
                    <polygon id="Path" fill="#11255D" points="110.28955 22.9451452 108.482385 21.0732929 103.17748 26.2073913 101.969303 24.9497633 107.27275 19.811288 105.451011 17.9350588 106.565915 16.8495887 111.411742 21.8611341"></polygon>
                    <polygon id="Path" fill="#11255D" points="113.146038 24.0058129 116.264855 28.2820398 115.011498 29.2026468 112.927429 26.3386982 111.251429 27.5686058 113.146038 30.1699407 111.892681 31.0963836 109.983498 28.4892128 108.234629 29.7789381 110.36242 32.6954094 109.109063 33.6160165 105.946524 29.2887258"></polygon>
                    <polygon id="Path" fill="#11255D" points="117.970003 30.9782074 120.49129 35.6352242 119.121342 36.3792965 117.430768 33.2600289 115.609029 34.2535842 117.153864 37.0927304 115.783916 37.8368027 114.239081 34.9976565 112.324069 36.0349807 114.04962 39.2155248 112.679672 39.959597 110.114663 35.2485985"></polygon>
                    <path d="M118.756994,44.4488328 C119.032441,44.3627539 119.300601,44.3350335 119.55856,44.3642128 C119.813603,44.3904742 120.051158,44.4663404 120.266852,44.5874345 C120.481088,44.7070697 120.670549,44.8660969 120.830862,45.0615982 C120.995547,45.2570995 121.113596,45.4803212 121.192295,45.7327222 C121.272452,45.992418 121.304514,46.2506548 121.287026,46.5045148 C121.272452,46.7598337 121.211241,46.9932681 121.101937,47.2091949 C120.995547,47.4251218 120.841064,47.6177052 120.639944,47.7854862 C120.437367,47.9547261 120.191067,48.084574 119.898132,48.1735709 C119.605196,48.2640267 119.329749,48.294665 119.073248,48.2669447 C118.81529,48.2377654 118.582107,48.1662761 118.372243,48.0480999 C118.163836,47.9299237 117.980205,47.7694376 117.824264,47.5681004 C117.66978,47.3667632 117.551732,47.1362467 117.473033,46.8750919 C117.395791,46.6241499 117.365186,46.37029 117.382674,46.1222659 C117.400163,45.8713239 117.459916,45.6364305 117.566306,45.4161267 C117.672695,45.197282 117.824264,45.0032396 118.022469,44.8354586 C118.220674,44.6662186 118.465516,44.5392887 118.758452,44.4488328" id="Path" fill="#11255D"></path>
                    <polygon id="Path" fill="#11255D" points="122.589934 62.0191504 124.376696 62.0920986 124.362122 62.0118555 122.90473 61.5624943 119.450713 59.8919791 119.421565 59.3346544 122.610337 57.1009788 123.9832 56.4459034 123.9832 56.3875448 122.248904 56.7522861 117.614399 57.0747174 117.497808 55.4202509 126.40247 54.8118624 126.519061 56.4021345 122.605965 59.061828 121.622226 59.5534992 121.622226 59.5972682 122.689036 59.9138636 126.897983 61.8893025 127 63.4693617 118.095339 64.0762912 117.964173 62.3401227"></polygon>
                    <path d="M122.24016,68.2197523 C121.791283,68.1686885 121.375927,68.1599347 120.989718,68.1934909 C120.606424,68.2270471 120.269767,68.3072902 119.98266,68.4327612 C119.694097,68.5596912 119.459457,68.736226 119.280198,68.9638246 C119.099481,69.1914231 118.991634,69.4730034 118.952285,69.8129423 C118.885245,70.4300846 119.070333,70.9348865 119.51338,71.3288071 C119.956427,71.7198098 120.718643,71.9795056 121.801485,72.1005997 C122.231415,72.1502045 122.63657,72.1604172 123.016949,72.129779 C123.397328,72.1005997 123.733986,72.0261924 124.032751,71.9050983 C124.328602,71.7840042 124.567614,71.6089284 124.751245,71.3842478 C124.934876,71.1551902 125.047096,70.8648562 125.086445,70.5088687 C125.157857,69.8902674 124.962567,69.3840065 124.507861,68.9900859 C124.051697,68.5961653 123.296768,68.3393875 122.24016,68.2197523 M122.445652,66.391669 C123.924904,66.5609089 125.026692,67.0146471 125.752473,67.7558014 C126.476796,68.4984147 126.772647,69.4744624 126.635652,70.6883214 C126.56424,71.3244302 126.39081,71.8642473 126.118278,72.3136086 C125.844289,72.7629699 125.487228,73.1204163 125.047096,73.3874069 C124.605506,73.6543976 124.093962,73.8323913 123.509548,73.9213882 C122.926591,74.0089261 122.288254,74.013303 121.594535,73.9345189 C120.11674,73.7681969 119.014953,73.3115408 118.290629,72.5645506 C117.567763,71.8190194 117.270455,70.8458896 117.40745,69.6466203 C117.480319,69.0032166 117.653749,68.4575636 117.926281,68.0096613 C118.200271,67.5603001 118.555874,67.2028536 118.996007,66.9416988 C119.437596,66.6776261 119.947683,66.5040093 120.533554,66.4150124 C121.116511,66.3274745 121.754848,66.3201797 122.447109,66.3989638" id="Shape" fill="#11255D"></path>
                    <polygon id="Path" fill="#11255D" points="120.651603 78.578405 122.196438 78.286612 122.211012 78.2282534 120.811916 78.0415058 116.323151 76.7692882 116.785144 75.1688034 125.431847 77.6315366 125.082073 78.8556084 119.587707 80.8120807 118.086594 81.0878251 118.07202 81.1461837 119.441968 81.3212595 123.959882 82.6197385 123.493516 84.2100106 114.851185 81.7443594 115.200959 80.5202877"></polygon>
                    <polygon id="Path" fill="#11255D" points="122.254734 87.4343236 120.054073 92.2591214 118.640403 91.606964 120.112368 88.382651 118.214845 87.5218615 116.876959 90.4689711 115.46329 89.8124368 116.79826 86.8799168 114.807464 85.9753584 113.320924 89.2580301 111.907255 88.6160854 114.12249 83.7343879"></polygon>
                    <polygon id="Path" fill="#11255D" points="112.635951 93.9062931 118.946455 94.4665357 117.824264 96.2172939 114.12249 95.7796044 113.233481 95.4236169 113.189759 95.4761396 113.908253 96.1589353 115.856785 99.2957104 114.851185 100.871393 111.70322 95.3871427 108.905029 93.5911566 109.837759 92.1176018"></polygon>
                    <path d="M106.26715,105.073212 C106.182621,105.157832 106.090806,105.261419 105.985874,105.379595 C105.882399,105.49923 105.800785,105.599899 105.742489,105.685978 C105.589463,105.987984 105.504934,106.294366 105.487446,106.603667 C105.471414,106.912968 105.579261,107.181417 105.815359,107.410475 C105.972757,107.560748 106.13307,107.65704 106.293383,107.694973 C106.456611,107.734365 106.615467,107.732906 106.772865,107.690596 C106.930263,107.648286 107.084747,107.575338 107.233401,107.468833 C107.382055,107.363788 107.523422,107.239776 107.658959,107.101174 C107.813442,106.942147 107.953352,106.791873 108.07723,106.650354 C108.202566,106.510293 108.292924,106.399412 108.352677,106.313333 L106.654816,104.670538 L106.26715,105.074671 M103.1221,102.798686 C102.97636,102.948959 102.85394,103.112363 102.751922,103.287439 C102.65282,103.463974 102.588694,103.641968 102.559546,103.824338 C102.530399,104.00525 102.5406,104.186162 102.593066,104.364155 C102.644075,104.54069 102.749007,104.707012 102.906406,104.858745 C103.104611,105.052787 103.301359,105.165127 103.49082,105.198683 C103.681738,105.23224 103.869741,105.21765 104.056287,105.153456 C104.241376,105.089261 104.419178,104.987134 104.588235,104.848532 C104.757293,104.70993 104.916148,104.561116 105.06626,104.406465 L105.701682,103.748472 L103.951355,102.051696 C103.910548,102.070662 103.855167,102.110054 103.783755,102.169872 C103.7138,102.229689 103.642388,102.296802 103.566604,102.368291 C103.49082,102.441239 103.413578,102.515647 103.330507,102.592972 C103.248893,102.671756 103.180395,102.740327 103.1221,102.800145 M104.868054,108.929257 C104.706284,108.774607 104.567832,108.60099 104.446868,108.406948 C104.327362,108.212906 104.244291,108.007191 104.200569,107.788347 C104.156847,107.569502 104.15539,107.337526 104.197654,107.095338 C104.238461,106.850232 104.333192,106.602208 104.484761,106.348348 L104.42938,106.294366 C104.22243,106.447558 104.003821,106.570111 103.770639,106.663485 C103.538913,106.756858 103.299901,106.802086 103.05506,106.799168 C102.80876,106.79625 102.559546,106.74081 102.308875,106.634305 C102.058204,106.526342 101.807533,106.351266 101.555404,106.107619 C101.226033,105.788105 101.008882,105.440872 100.90395,105.065918 C100.799018,104.690964 100.782986,104.313092 100.858771,103.929384 C100.933098,103.547135 101.078837,103.169263 101.295988,102.798686 C101.511682,102.42665 101.77547,102.083793 102.081522,101.764279 C102.18354,101.660693 102.310333,101.527927 102.466273,101.364523 C102.625129,101.202578 102.797101,101.033338 102.986562,100.855344 C103.176023,100.67735 103.374228,100.499357 103.578263,100.32574 C103.782298,100.152123 103.979046,100.000391 104.169964,99.8763785 L110.495043,106.00695 C110.40177,106.141175 110.291008,106.289989 110.162757,106.459229 C110.038879,106.62701 109.897512,106.802086 109.744486,106.984457 C109.590003,107.168286 109.429689,107.353575 109.260632,107.538864 C109.093032,107.724152 108.922517,107.907982 108.752002,108.084517 C108.461982,108.383604 108.157387,108.652054 107.836761,108.894242 C107.514677,109.133513 107.188222,109.310047 106.855936,109.420929 C106.523651,109.530351 106.188451,109.552236 105.851794,109.485123 C105.513679,109.418011 105.185766,109.231263 104.869512,108.924881" id="Shape" fill="#11255D"></path>
                    <path d="M98.5866976,109.523056 L97.0491497,110.661049 L98.7644993,111.870531 L99.8138211,112.840743 L99.8648298,112.801351 L99.2396089,111.502872 L98.588155,109.523056 M95.9080122,109.759409 L98.1130454,108.128286 L97.4819949,106.13388 L98.8883776,105.095097 L101.645762,114.248644 L100.609557,115.01606 L92.6813477,109.683542 L94.1576852,108.592236 L95.9080122,109.760868" id="Shape" fill="#11255D"></path>
                    <path d="M86.67981,113.330955 C86.8284639,113.030409 87.0660187,112.741533 87.3953891,112.468707 C87.726217,112.192963 88.0861927,111.950774 88.4753162,111.740683 C88.9445962,111.485364 89.4328223,111.316124 89.9327075,111.232963 C90.4355076,111.151261 90.9339354,111.186277 91.4309059,111.338009 C91.9293337,111.488282 92.4117303,111.77424 92.8853825,112.191504 C93.3546625,112.607309 93.7933373,113.186518 94.1926626,113.927672 C94.6109339,114.699465 94.8514035,115.404145 94.9199009,116.040254 C94.9883982,116.676362 94.9373895,117.242441 94.7668748,117.745784 C94.5992747,118.249127 94.3427739,118.68244 93.9988295,119.047181 C93.6548851,119.413381 93.274506,119.708092 92.8533199,119.934232 C92.4059007,120.177879 92.0109476,120.352955 91.6670033,120.460918 C91.3245163,120.567423 91.0286659,120.635994 90.7838241,120.663714 L90.3830415,119.190159 C90.5987354,119.181406 90.8362902,119.130342 91.0927911,119.039886 C91.3478346,118.94943 91.6451424,118.813746 91.9817998,118.631376 C92.6011912,118.294355 92.9830277,117.804143 93.1214799,117.154903 C93.2599321,116.508581 93.0777581,115.717822 92.5764155,114.789921 C92.3563494,114.385787 92.1115077,114.038553 91.8418902,113.754055 C91.5737302,113.469557 91.2807946,113.256548 90.9703702,113.120864 C90.6599458,112.983722 90.3320328,112.922445 89.9880884,112.939953 C89.644144,112.956001 89.2929127,113.062506 88.932937,113.256548 C88.5962796,113.438919 88.3310344,113.625666 88.135744,113.819709 C87.9389961,114.012292 87.7845126,114.207793 87.6693787,114.406213 L86.6783526,113.325119" id="Path" fill="#11255D"></path>
                    <polygon id="Path" fill="#11255D" points="84.1876707 118.028823 84.6234307 117.882927 83.3292672 114.279283 84.974662 113.695697 88.0060361 122.099336 86.3591839 122.697512 85.0183838 118.977151 84.6919281 119.283533 83.6484359 123.675018 81.7815175 124.346142 82.9605472 119.925478 83.4444011 119.239764 82.5991141 119.00633 78.387253 116.07381 80.413027 115.329738"></polygon>
                    <path d="M71.0274265,122.172284 L67.7235202,122.596843 L67.2178054,118.644506 C67.5340594,118.304568 67.9304698,118.0332 68.4070368,117.834781 C68.8836038,117.636362 69.3630855,117.506514 69.8425673,117.445237 C70.4080352,117.372289 70.9443552,117.394173 71.4529848,117.507973 C71.960157,117.623231 72.4163205,117.846453 72.8185605,118.176179 C73.2208005,118.505905 73.5589153,118.950889 73.8372771,119.505296 C74.1141815,120.062621 74.3036423,120.741039 74.4071171,121.54347 C74.5149641,122.379457 74.4843589,123.106022 74.321131,123.724623 C74.1549884,124.343224 73.8999449,124.861157 73.5545432,125.278421 C73.2091414,125.697144 72.8039866,126.019575 72.3332492,126.245715 C71.8668839,126.474773 71.3786578,126.61921 70.8758578,126.684864 C70.3716004,126.749058 69.9212664,126.769484 69.5277708,126.743222 C69.1342751,126.715502 68.8194786,126.674651 68.5804664,126.61921 L68.7480664,125.117935 C68.9695899,125.176294 69.2144316,125.211309 69.4811342,125.224439 C69.7492943,125.236111 70.0844943,125.217145 70.4896491,125.164622 C70.8525395,125.117935 71.1775378,125.021643 71.4675587,124.87137 C71.7575796,124.722555 71.9980492,124.509546 72.1904248,124.232343 C72.3813431,123.953681 72.5125083,123.613742 72.5868353,123.209608 C72.6597048,122.804016 72.6597048,122.324017 72.5897501,121.766692 C72.5212527,121.235629 72.4046614,120.783349 72.2370613,120.41569 C72.0680039,120.046572 71.8654265,119.750402 71.6220422,119.528639 C71.3786578,119.306877 71.1090404,119.153685 70.8102752,119.073442 C70.5115099,118.99174 70.202543,118.969856 69.8833743,119.010707 C69.6633082,119.038427 69.4519864,119.093868 69.2479516,119.177029 C69.0439168,119.258731 68.8763168,119.362317 68.7480664,119.492165 L68.9623029,121.164139 L70.8991761,121.121829 L71.0347135,122.172284" id="Path" fill="#11255D"></path>
                    <path d="M60.1844346,126.870152 L58.5259232,126.824924 L58.6804067,121.056176 C58.696438,120.476967 58.7853389,119.97946 58.9485667,119.566572 C59.1132519,119.153685 59.3362328,118.816664 59.6145946,118.549674 C59.8944137,118.285601 60.2296137,118.093018 60.6260242,117.9763 C61.0209773,117.861042 61.4523651,117.808519 61.9187303,117.820191 C64.1806018,117.880009 65.2838471,118.946512 65.2284662,121.012407 L65.0666957,127 L63.3207409,126.953313 L63.4708522,121.310036 C63.4810539,120.961343 63.4562783,120.663714 63.3979826,120.420067 C63.3411443,120.17642 63.2478713,119.978001 63.1152487,119.824809 C62.9826261,119.671618 62.815026,119.560737 62.613906,119.492165 C62.4113286,119.422135 62.1752312,119.384202 61.902699,119.376907 C61.3678364,119.363776 60.9772555,119.500919 60.729499,119.791253 C60.4831998,120.083046 60.3520346,120.560128 60.3345459,121.225416 L60.1829772,126.868693" id="Path" fill="#11255D"></path>
                    <path d="M54.0327856,120.611192 L52.1512933,120.266876 L52.4471437,122.345901 L52.4573455,123.774228 L52.5214707,123.7859 L53.0388446,122.440734 L54.034243,120.609733 M52.027415,118.813746 L54.7265039,119.308336 L55.7466778,117.48317 L57.4663997,117.796848 L52.6876133,126.075016 L51.4196828,125.843041 L49.8733906,116.407913 L51.6820133,116.740557 L52.0288724,118.813746" id="Shape" fill="#11255D"></path>
                    <path d="M43.6138946,122.230643 C43.782952,122.289001 43.950552,122.342983 44.118152,122.391129 C44.2872094,122.440734 44.4183746,122.468454 44.5145624,122.475749 L45.3598494,120.023229 L44.661759,119.782499 C44.2041381,119.623472 43.8004407,119.601588 43.4550389,119.715387 C43.1110945,119.832104 42.8545937,120.129733 42.688451,120.61265 C42.5645728,120.975933 42.5791467,121.296905 42.7321728,121.579944 C42.8866563,121.862984 43.1810493,122.080369 43.615352,122.230643 M45.7110808,124.373863 C45.5143329,124.341765 45.3044686,124.303832 45.0814877,124.258604 C44.8585068,124.211918 44.6384407,124.160854 44.419832,124.103954 C44.2012233,124.044137 43.9899015,123.987237 43.7858667,123.924501 C43.581832,123.861766 43.3952859,123.804866 43.2276858,123.745049 C42.8327328,123.607906 42.4581832,123.438666 42.1011223,123.234411 C41.7455188,123.030156 41.4467536,122.787968 41.206284,122.506387 C40.964357,122.223348 40.8084161,121.89654 40.7340892,121.524504 C40.6597622,121.152468 40.703484,120.732286 40.863797,120.266876 C41.1028092,119.573867 41.4584127,119.066147 41.9291501,118.743716 C42.3998875,118.421285 42.9347502,118.268093 43.5308233,118.284142 L43.0688302,117.704933 L42.2541484,113.816791 L44.1575015,114.474784 L44.9328338,118.444628 L45.7475155,118.902743 L46.9425765,115.437701 L48.5938009,116.009615 L45.7096234,124.375322" id="Shape" fill="#11255D"></path>
                    <path d="M37.8295082,115.388096 L36.1301898,114.506881 L35.8037341,116.58153 L35.3971219,117.952957 L35.4539602,117.980677 L36.3429689,116.845602 L37.8295082,115.386637 M36.4347846,113.082931 L38.871543,114.343477 L40.3799431,112.896184 L41.9306075,113.698615 L34.9453306,120.21873 L33.8012784,119.62639 L35.0764958,110.150411 L36.7087742,110.995152 L36.4347846,113.082931" id="Shape" fill="#11255D"></path>
                    <polygon id="Path" fill="#11255D" points="29.4189025 111.842811 29.1492851 113.389314 29.2017512 113.433083 29.8692364 112.178373 32.6397374 108.428832 33.9659636 109.420929 28.627539 116.657396 27.6015354 115.903111 27.707925 110.06725 27.976085 108.565975 27.9250763 108.528042 27.2779945 109.749196 24.4885474 113.527916 23.1550343 112.550409 28.4978311 105.299352 29.5209199 106.058014"></polygon>
                    <polygon id="Path" fill="#11255D" points="17.1695279 104.533395 18.979608 106.41546 24.2757683 101.276985 25.4926901 102.534613 20.1950724 107.67017 22.0138969 109.552236 20.8931629 110.63187 16.0502513 105.621783"></polygon>
                    <polygon id="Path" fill="#11255D" points="14.3246999 103.585068 11.1461293 99.354069 12.3921989 98.4159544 14.5214478 101.255101 16.1828739 100.010603 14.2460008 97.428235 15.490613 96.4799076 17.4289436 99.0768656 19.1734411 97.763797 17.0048427 94.875046 18.2509123 93.9340134 21.4673751 98.223371"></polygon>
                    <polygon id="Path" fill="#11255D" points="9.41329095 96.6695731 6.83079342 92.0300639 8.19053958 91.271402 9.91900576 94.3789978 11.7349154 93.3577222 10.1609327 90.5419194 11.5192215 89.7832575 13.0932042 92.6005193 14.9907278 91.5340157 13.2360286 88.382651 14.5957747 87.6239891 17.2088775 92.3043493"></polygon>
                    <path d="M8.48056046,83.2325039 C8.20511349,83.3200418 7.93841087,83.352139 7.68045259,83.3273366 C7.42249432,83.3025342 7.18493952,83.229586 6.96778821,83.1114098 C6.75209428,82.9932336 6.5626334,82.8385833 6.39794818,82.6459999 C6.23472034,82.4519575 6.11084207,82.2301948 6.03068555,81.9777939 C5.94907163,81.7180981 5.91263685,81.4613202 5.92429598,81.2060013 C5.9374125,80.9521413 5.99570815,80.717248 6.10064033,80.4998621 C6.20557251,80.2824763 6.35859861,80.0898929 6.55826123,79.919194 C6.75646646,79.7470361 7.0027656,79.6142703 7.29570127,79.5208965 C7.58572215,79.4260638 7.86116913,79.3925076 8.12058479,79.41731 C8.37854307,79.4421124 8.61318308,79.5121427 8.82304744,79.627401 C9.03436919,79.7426592 9.2180005,79.9016864 9.37685617,80.1015647 C9.53279704,80.2999839 9.65521792,80.5305004 9.73683184,80.7901962 C9.81844576,81.0411382 9.85050837,81.2920802 9.83739184,81.5415633 C9.82281793,81.7925053 9.76452227,82.0273987 9.66104749,82.2491614 C9.5575727,82.4694651 9.40746138,82.6635075 9.21217094,82.8342064 C9.01688049,83.0034464 8.77203874,83.1362122 8.48201786,83.2310449" id="Path" fill="#11255D"></path>
                    <polygon id="Path" fill="#3ECE9D" points="58.3466641 80.8704393 58.2402745 80.8704393 57.7986849 83.2179143 56.7245875 86.4801604 59.884212 86.4801604 58.7853389 83.188735"></polygon>
                    <path d="M45.2213973,80.1103184 C44.7025659,79.8141485 44.0423676,79.666793 43.2422598,79.666793 C42.9332928,79.666793 42.6199536,79.6740879 42.3051571,79.6872185 C41.9889032,79.7018082 41.7528058,79.7222337 41.5983223,79.751413 L41.5983223,89.6417379 C41.6537032,89.6577865 41.749891,89.6665403 41.8825136,89.6738351 C42.0151362,89.68113 42.1608754,89.6884248 42.3139014,89.6957196 C42.4698423,89.7030144 42.6170389,89.7088503 42.7569484,89.7161451 C42.8983154,89.7234399 43.0032476,89.7278168 43.0732024,89.7278168 C43.8878841,89.7278168 44.5655711,89.5848383 45.1062633,89.2959631 C45.6469555,89.007088 46.0754286,88.6248392 46.3916825,88.1462986 C46.7079365,87.667758 46.92946,87.1162692 47.0547956,86.4903731 C47.1815887,85.8644771 47.2442565,85.2210734 47.2442565,84.5601622 C47.2442565,83.983871 47.1874182,83.4046618 47.0751991,82.8210757 C46.96298,82.2360307 46.7560304,81.7122622 46.4543504,81.2483113 C46.151213,80.7843604 45.741686,80.4050294 45.2213973,80.1103184 Z" id="Path" fill="#3861C3"></path>
                    <path d="M111.047394,63.5072948 C111.047394,36.9176546 89.5144362,15.3614443 62.9534782,15.3614443 C36.3925203,15.3614443 14.8595626,36.9176546 14.8595626,63.5072948 C14.8595626,90.096935 36.3925203,111.653145 62.9534782,111.653145 C89.5144362,111.653145 111.047394,90.096935 111.047394,63.5072948 Z" id="Path" fill-opacity="0.919327446" fill="#00C972"></path>
                    <path d="M50.478208,34.2210221 C52.0327666,34.2210221 53.4357346,34.4427825 54.6871543,34.8863102 C55.938574,35.3298378 57.007317,35.9445423 57.8934153,36.7304421 C58.7795137,37.516342 59.4596229,38.4383987 59.9337633,39.4966401 C60.4079037,40.5548815 60.6449703,41.6986987 60.6449703,42.9281262 C60.6449703,44.0019299 60.5244938,44.9473299 60.2835372,45.7643545 C60.0425806,46.581379 59.6928102,47.2933469 59.2342154,47.9002795 C58.7756206,48.507212 58.2159879,49.0207626 57.5553005,49.4409467 C56.8946131,49.8611308 56.1445499,50.2112789 55.3050882,50.4914016 C57.3260144,51.1294589 58.8339136,52.1020926 59.8288311,53.4093319 C60.8237486,54.7165713 61.3211999,56.358377 61.3211999,58.3347984 C61.3211999,60.0155346 61.0102928,61.501719 60.3884694,62.7933959 C59.766646,64.0850729 58.9271969,65.1705321 57.8700971,66.0498062 C56.8129972,66.9290802 55.5888007,67.5943617 54.1974708,68.0456705 C52.8061409,68.4969793 51.3332187,68.7226304 49.7786601,68.7226304 C48.0841913,68.7226304 46.6073828,68.5281036 45.3481903,68.1390443 C44.0889979,67.749985 42.9930505,67.1741858 42.0603153,66.4116295 C41.1275802,65.6490733 40.3347672,64.7153449 39.6818526,63.6104164 C39.028938,62.5054879 38.4693053,61.2293925 38.0029377,59.7820918 L40.5446283,58.7316369 C40.9799047,58.5448884 41.4229473,58.4515156 41.8737693,58.4515156 C42.2779545,58.4515156 42.6393839,58.5371073 42.9580684,58.7082934 C43.2767529,58.8794795 43.5215923,59.1284738 43.6925937,59.4552836 C43.9724142,59.9999667 44.279435,60.5368605 44.6136651,61.0659812 C44.9478951,61.5951018 45.348188,62.0658566 45.8145556,62.4782594 C46.2809231,62.8906623 46.8288968,63.2252483 47.458493,63.4820275 C48.0880893,63.7388066 48.8381525,63.8671943 49.7087053,63.8671943 C50.6880772,63.8671943 51.5430716,63.7076823 52.2737142,63.3886537 C53.0043567,63.0696251 53.6145118,62.6533378 54.1041977,62.1397795 C54.5938837,61.6262212 54.9591995,61.0543126 55.2001561,60.4240365 C55.4411126,59.7937604 55.5615891,59.1596032 55.5615891,58.5215459 C55.5615891,57.7123025 55.4760897,56.9769914 55.3050882,56.3155906 C55.1340868,55.6541897 54.7765437,55.0900622 54.2324482,54.623191 C53.6883527,54.1563198 52.9071987,53.7906095 51.8889628,53.5260492 C50.870727,53.2614888 49.5066223,53.1292106 47.7966078,53.1292106 L47.7966078,49.0207647 C49.2112561,49.0052023 50.3849303,48.8729242 51.3176654,48.6239262 C52.2504006,48.3749282 52.9926912,48.0286706 53.5445595,47.585143 C54.0964278,47.1416154 54.4811752,46.6086121 54.6988134,45.9861172 C54.9164516,45.3636223 55.0252691,44.6788881 55.0252691,43.9318942 C55.0252691,42.3289698 54.5899992,41.1190135 53.7194464,40.3019889 C52.8488936,39.4849643 51.6596741,39.0764581 50.1517523,39.0764581 C48.7837408,39.0764581 47.64893,39.4382779 46.747286,40.1619282 C45.8456421,40.8855786 45.2160553,41.8154164 44.8585068,42.9514696 C44.6719598,43.5428398 44.4154615,43.9669081 44.0890042,44.2236872 C43.7625469,44.4804664 43.3350497,44.6088541 42.8064997,44.6088541 C42.5577704,44.6088541 42.2934994,44.5855108 42.0136788,44.5388237 L38.9823047,44.0019245 C39.2154885,42.3834378 39.6663038,40.9633925 40.3347639,39.7417462 C41.0032241,38.5201 41.8387868,37.5007798 42.8414771,36.6837553 C43.8441674,35.8667307 44.9945235,35.2520262 46.2925799,34.8396233 C47.5906363,34.4272204 48.9858317,34.2210221 50.478208,34.2210221 Z M88.8367492,51.4718262 C88.8367492,54.4131147 88.5219558,56.9691961 87.8923596,59.1401471 C87.2627634,61.3110982 86.3922236,63.1046347 85.2807142,64.5208107 C84.1692049,65.9369866 82.8556226,66.9913216 81.3399279,67.6838472 C79.8242333,68.3763728 78.188085,68.7226304 76.4314338,68.7226304 C74.6747826,68.7226304 73.0464069,68.3763728 71.5462578,67.6838472 C70.0461088,66.9913216 68.7441855,65.9369866 67.6404489,64.5208107 C66.5367123,63.1046347 65.6739453,61.3110982 65.0521218,59.1401471 C64.4302984,56.9691961 64.1193913,54.4131147 64.1193913,51.4718262 C64.1193913,48.5149753 64.4302984,45.9550034 65.0521218,43.7918336 C65.6739453,41.6286637 66.5367123,39.8390177 67.6404489,38.4228417 C68.7441855,37.0066658 70.0461088,35.9523308 71.5462578,35.2598053 C73.0464069,34.5672797 74.6747826,34.2210221 76.4314338,34.2210221 C78.188085,34.2210221 79.8242333,34.5672797 81.3399279,35.2598053 C82.8556226,35.9523308 84.1692049,37.0066658 85.2807142,38.4228417 C86.3922236,39.8390177 87.2627634,41.6286637 87.8923596,43.7918336 C88.5219558,45.9550034 88.8367492,48.5149753 88.8367492,51.4718262 Z M82.8905924,51.4718262 C82.8905924,49.0285337 82.7118208,47.0054555 82.3542723,45.4025311 C81.9967239,43.7996067 81.5187043,42.5235113 80.9201992,41.5742065 C80.3216942,40.6249018 79.6338123,39.9596203 78.856533,39.5783421 C78.0792537,39.197064 77.2708954,39.0064278 76.4314338,39.0064278 C75.6075177,39.0064278 74.8108184,39.197064 74.0413119,39.5783421 C73.2718054,39.9596203 72.5916962,40.6249018 72.0009639,41.5742065 C71.4102317,42.5235113 70.9399848,43.7996067 70.5902091,45.4025311 C70.2404334,47.0054555 70.0655482,49.0285337 70.0655482,51.4718262 C70.0655482,53.9151188 70.2404334,55.9381969 70.5902091,57.5411213 C70.9399848,59.1440457 71.4102317,60.4201412 72.0009639,61.3694459 C72.5916962,62.3187507 73.2718054,62.9840321 74.0413119,63.3653103 C74.8108184,63.7465884 75.6075177,63.9372246 76.4314338,63.9372246 C77.2708954,63.9372246 78.0792537,63.7465884 78.856533,63.3653103 C79.6338123,62.9840321 80.3216942,62.3187507 80.9201992,61.3694459 C81.5187043,60.4201412 81.9967239,59.1440457 82.3542723,57.5411213 C82.7118208,55.9381969 82.8905924,53.9151188 82.8905924,51.4718262 Z" id="30" fill="#FFFFFF"></path>
                    <path d="M51.8010709,82.2833749 C51.8010709,83.2350739 51.6426279,84.1089479 51.3257371,84.9050231 C51.0088463,85.7010983 50.5634122,86.386431 49.9894213,86.9610417 C49.4154305,87.5356524 48.7248581,87.9815675 47.9176834,88.2988005 C47.1105088,88.6160335 46.216651,88.7746476 45.2360833,88.7746476 L40.2854369,88.7746476 L40.2854369,75.7921022 L45.2360833,75.7921022 C46.216651,75.7921022 47.1105088,75.9522127 47.9176834,76.2724384 C48.7248581,76.5926642 49.4154305,77.0385793 49.9894213,77.6101973 C50.5634122,78.1818152 51.0088463,78.8656515 51.3257371,79.6617267 C51.6426279,80.457802 51.8010709,81.331676 51.8010709,82.2833749 Z M49.3347163,82.2833749 C49.3347163,81.5710971 49.2390526,80.9321515 49.0477223,80.3665191 C48.856392,79.8008867 48.5843483,79.3220517 48.2315831,78.9299996 C47.8788179,78.5379475 47.449826,78.2371792 46.9445944,78.0276857 C46.4393629,77.8181923 45.8698649,77.7134471 45.2360833,77.7134471 L42.7159173,77.7134471 L42.7159173,86.8533027 L45.2360833,86.8533027 C45.8698649,86.8533027 46.4393629,86.7485576 46.9445944,86.5390641 C47.449826,86.3295706 47.8788179,86.0288023 48.2315831,85.6367502 C48.5843483,85.2446982 48.856392,84.7658631 49.0477223,84.2002307 C49.2390526,83.6345983 49.3347163,82.9956528 49.3347163,82.2833749 Z M65.0924804,88.7746476 L63.2270194,88.7746476 C63.0177519,88.7746476 62.8458562,88.7222751 62.711327,88.6175283 C62.5767979,88.5127816 62.4796395,88.3825983 62.4198488,88.2269746 L61.451244,85.5783916 L56.0790752,85.5783916 L55.1104704,88.2269746 C55.0626379,88.3646417 54.9684689,88.4903359 54.8279607,88.6040609 C54.6874525,88.717786 54.5155568,88.7746476 54.3122684,88.7746476 L52.4378389,88.7746476 L57.5319823,75.7921022 L59.9983369,75.7921022 L65.0924804,88.7746476 Z M56.697906,83.8725247 L60.8324132,83.8725247 L59.2539463,79.5539878 C59.1821974,79.3624509 59.1029759,79.1365006 59.0162794,78.8761301 C58.9295828,78.6157596 58.8443823,78.3329477 58.7606753,78.0276857 C58.6769683,78.3329477 58.5947573,78.617256 58.5140399,78.8806192 C58.4333224,79.1439825 58.3541009,79.3744218 58.276373,79.5719443 L56.697906,83.8725247 Z M72.1955817,83.7288727 L72.1955817,88.7746476 L69.7830385,88.7746476 L69.7830385,83.7288727 L65.0566061,75.7921022 L67.1821554,75.7921022 C67.3914229,75.7921022 67.5573396,75.8429784 67.6799106,75.9447324 C67.8024816,76.0464864 67.905619,76.1751733 67.989326,76.330797 L70.365995,80.6672904 C70.5035137,80.9246681 70.6230933,81.1685747 70.7247375,81.3990176 C70.8263817,81.6294604 70.919056,81.8554107 71.002763,82.0768752 C71.0804909,81.8494252 71.1686809,81.6204822 71.2673355,81.3900393 C71.3659902,81.1595965 71.4840751,80.9186826 71.6215938,80.6672904 L73.9803257,76.330797 C74.0460954,76.1991154 74.1447486,76.0764139 74.2762882,75.9626889 C74.4078278,75.8489639 74.5752393,75.7921022 74.7785277,75.7921022 L76.9130456,75.7921022 L72.1955817,83.7288727 Z M85.1192801,78.1533812 C85.0535103,78.2850628 84.9772783,78.3778371 84.8905818,78.4317069 C84.8038852,78.4855766 84.7007478,78.5125111 84.5811664,78.5125111 C84.4615849,78.5125111 84.3270579,78.4661239 84.1775811,78.3733483 C84.0281043,78.2805726 83.8517243,78.1773238 83.6484359,78.0635987 C83.4451475,77.9498737 83.2074829,77.8466249 82.9354352,77.7538492 C82.6633874,77.6610735 82.3420172,77.6146864 81.9713147,77.6146864 C81.6364867,77.6146864 81.3450114,77.6550881 81.0968799,77.7358927 C80.8487484,77.8166973 80.6394841,77.9289243 80.4690805,78.072577 C80.298677,78.2162297 80.1716236,78.388311 80.0879166,78.5888262 C80.0042096,78.7893414 79.9623568,79.0093062 79.9623568,79.2487274 C79.9623568,79.5539893 80.0475572,79.8083704 80.2179608,80.0118784 C80.3883643,80.2153863 80.6140709,80.388964 80.8950872,80.5326167 C81.1761036,80.6762694 81.4959791,80.8049563 81.8547234,80.9186813 C82.2134677,81.0324064 82.5796803,81.1536115 82.9533723,81.2823004 C83.3270643,81.4109892 83.6932769,81.5606252 84.0520212,81.7312127 C84.4107655,81.9018003 84.730641,82.117276 85.0116574,82.3776465 C85.2926737,82.638017 85.5183803,82.9567416 85.6887838,83.3338298 C85.8591874,83.7109181 85.9443879,84.1688041 85.9443879,84.7075017 C85.9443879,85.2940834 85.8442399,85.8432474 85.643941,86.35501 C85.4436421,86.8667727 85.150672,87.3126878 84.7650219,87.6927689 C84.3793718,88.0728499 83.908527,88.3721218 83.3524733,88.5905936 C82.7964197,88.8090653 82.1596581,88.9182996 81.4421695,88.9182996 C81.0296136,88.9182996 80.6230429,88.8778979 80.2224451,88.7970933 C79.8218473,88.7162886 79.4376977,88.6010689 79.0699848,88.4514307 C78.7022719,88.3017925 78.3584805,88.1222294 78.0386001,87.9127359 C77.7187198,87.7032424 77.4332234,87.4698103 77.1821024,87.2124326 L77.8816503,86.0542387 C77.9474201,85.9704413 78.0266416,85.9001124 78.1193172,85.8432499 C78.2119928,85.7863874 78.3151302,85.7579566 78.4287326,85.7579566 C78.5782094,85.7579566 78.7396419,85.8193073 78.913035,85.9420106 C79.086428,86.064714 79.2912082,86.2008827 79.5273815,86.3505209 C79.7635548,86.5001591 80.0415775,86.6363278 80.3614578,86.7590311 C80.6813381,86.8817345 81.0654877,86.9430852 81.513918,86.9430852 C82.2015113,86.9430852 82.7336406,86.779982 83.1103221,86.4537707 C83.4870036,86.1275595 83.6753416,85.6591989 83.6753416,85.0486751 C83.6753416,84.7075 83.5901411,84.4291771 83.4197375,84.2136981 C83.249334,83.9982191 83.0236274,83.8171595 82.7426111,83.6705141 C82.4615947,83.5238687 82.1417192,83.3996708 81.7829749,83.2979168 C81.4242306,83.1961629 81.0595127,83.0854323 80.6888103,82.9657217 C80.3181079,82.8460111 79.95339,82.7023606 79.5946457,82.5347658 C79.2359014,82.3671711 78.9160259,82.1487026 78.6350095,81.8793538 C78.3539932,81.610005 78.1282866,81.2733241 77.9578831,80.869301 C77.7874795,80.4652778 77.702279,79.9669901 77.702279,79.3744228 C77.702279,78.9015661 77.796448,78.4406874 77.9847888,77.9917728 C78.1731295,77.5428582 78.4481627,77.1448265 78.8098965,76.7976659 C79.1716303,76.4505053 79.6155697,76.1721824 80.141728,75.9626889 C80.6678863,75.7531954 81.268774,75.6484502 81.944409,75.6484502 C82.7097302,75.6484502 83.41525,75.768159 84.0609898,76.0075801 C84.7067295,76.2470013 85.2567958,76.5821858 85.7112052,77.0131438 L85.1192801,78.1533812 Z" id="DAYS" fill="#FFFFFF"></path>
                </g>
            </g>
        </g>
    </g>
</svg>