<svg width="29" height="29" viewBox="0 0 29 29" xmlns="http://www.w3.org/2000/svg" xmlns:xlink="http://www.w3.org/1999/xlink"><defs><linearGradient x1="50%" y1="0%" x2="50%" y2="100%" id="a"><stop stop-color="#57FF81" offset="0%"/><stop stop-color="#3CCA68" offset="100%"/></linearGradient><path d="M7.5,0.625 C11.2969577,0.625 14.375,3.70304235 14.375,7.5 C14.375,11.2969577 11.2969577,14.375 7.5,14.375 C3.70304235,14.375 0.625,11.2969577 0.625,7.5 C0.625,3.70304235 3.70304235,0.625 7.5,0.625 Z M5.77693992,10.1074565 L3.98874927,11.8947794 C4.95107396,12.6646416 6.17177575,13.125 7.5,13.125 C8.82822425,13.125 10.048926,12.6646416 11.0112507,11.8947794 L9.22306008,10.1074565 C8.72910134,10.4345314 8.13679384,10.625 7.5,10.625 C6.86320616,10.625 6.27089866,10.4345314 5.77693992,10.1074565 Z M11.8947794,3.98874927 L10.1074565,5.77693992 C10.4345314,6.27089866 10.625,6.86320616 10.625,7.5 C10.625,8.13679384 10.4345314,8.72910134 10.1074565,9.22306008 L11.8947794,11.0112507 C12.6646416,10.048926 13.125,8.82822425 13.125,7.5 C13.125,6.17177575 12.6646416,4.95107396 11.8947794,3.98874927 Z M1.875,7.5 C1.875,8.82822425 2.3353584,10.048926 3.10522057,11.0112507 L4.89254347,9.22306008 C4.56546863,8.72910134 4.375,8.13679384 4.375,7.5 C4.375,6.86320616 4.56546863,6.27089866 4.89254347,5.77693992 L3.10522057,3.98874927 C2.3353584,4.95107396 1.875,6.17177575 1.875,7.5 Z M7.5,5.625 C6.46446609,5.625 5.625,6.46446609 5.625,7.5 C5.625,8.53553391 6.46446609,9.375 7.5,9.375 C8.53553391,9.375 9.375,8.53553391 9.375,7.5 C9.375,6.46446609 8.53553391,5.625 7.5,5.625 Z M7.5,1.875 C6.17177575,1.875 4.95107396,2.3353584 3.98874927,3.10522057 L5.77693992,4.89254347 C6.27089866,4.56546863 6.86320616,4.375 7.5,4.375 C8.13679384,4.375 8.72910134,4.56546863 9.22306008,4.89254347 L11.0112507,3.10522057 C10.048926,2.3353584 8.82822425,1.875 7.5,1.875 Z" id="b"/></defs><g fill="none" fill-rule="evenodd"><circle fill="url(#a)" cx="14.5" cy="14.5" r="14.5"/><g transform="translate(7 7)"><mask id="c" fill="#fff"><use xlink:href="#b"/></mask><use fill="#000" fill-rule="nonzero" xlink:href="#b"/><g mask="url(#c)" fill="#FFF"><rect width="15" height="15"/></g></g></g></svg>