<?xml version="1.0" encoding="UTF-8"?>
<svg width="20px" height="20px" viewBox="0 0 20 20" version="1.1" xmlns="http://www.w3.org/2000/svg" xmlns:xlink="http://www.w3.org/1999/xlink">
    <title>Path</title>
    <g id="Symbols" stroke="none" stroke-width="1" fill="none" fill-rule="evenodd">
        <g id="moon" fill="#FFFFFF" fill-rule="nonzero">
            <path d="M19.513326,11.3490938 C19.3087302,11.2979449 19.1041344,11.3490938 18.9251131,11.4769662 C18.2601767,12.0396047 17.4929423,12.4999453 16.6489846,12.806839 C15.8561758,13.1137327 14.9866436,13.2671796 14.0659624,13.2671796 C11.9944298,13.2671796 10.1019185,12.4232218 8.74647117,11.0677746 C7.39102388,9.71232728 6.54706614,7.81981597 6.54706614,5.74828332 C6.54706614,4.8787511 6.700513,4.03479336 6.95625777,3.26755905 C7.23757702,2.44917578 7.64676865,1.70751594 8.18383267,1.06815402 C8.41400297,0.786834767 8.36285401,0.377643133 8.08153476,0.147472839 C7.90251342,0.0196004539 7.69791761,-0.0315485003 7.49332179,0.0196004539 C5.31949124,0.607813427 3.42697993,1.91211176 2.07153265,3.6511762 C0.767234313,5.36466617 0,7.48734777 0,9.78905071 C0,12.5766687 1.12527699,15.1085419 2.96663934,16.9499043 C4.8080017,18.7912666 7.31430045,19.9165436 10.1274929,19.9165436 C12.4803448,19.9165436 14.6541754,19.0981604 16.3932398,17.7427131 C18.1578787,16.3616913 19.4366026,14.3924566 19.9736666,12.1419026 C20.0759645,11.7838599 19.8713687,11.4258172 19.513326,11.3490938 Z" id="Path"></path>
        </g>
    </g>
</svg>