<?xml version="1.0" encoding="UTF-8"?>
<svg width="140px" height="20px" viewBox="0 0 140 20" version="1.1" xmlns="http://www.w3.org/2000/svg" xmlns:xlink="http://www.w3.org/1999/xlink">
    <title>Group</title>
    <defs>
        <filter id="filter-1">
            <feColorMatrix in="SourceGraphic" type="matrix" values="0 0 0 0 1.000000 0 0 0 0 1.000000 0 0 0 0 1.000000 0 0 0 1.000000 0"></feColorMatrix>
        </filter>
    </defs>
    <g id="Desktop" stroke="none" stroke-width="1" fill="none" fill-rule="evenodd">
        <g id="Home-Light-" transform="translate(-714.000000, -3941.000000)">
            <g id="Group-33" transform="translate(161.000000, 3469.000000)">
                <g id="Trust" transform="translate(236.000000, 456.725581)">
                    <g id="Group" transform="translate(317.000000, 15.455371)" filter="url(#filter-1)">
                        <g>
                            <path d="M2.87179487,8.32380952 C1.97435897,7.96190476 1.43589744,7.41904762 1.07692308,6.87619048 C0.717948718,6.33333333 0.538461538,5.60952381 0.538461538,4.7047619 C0.538461538,3.43809524 1.07692308,2.35238095 1.97435897,1.44761905 C2.87179487,0.542857143 4.12820513,0.180952381 5.92307692,0.180952381 C7.53846154,0.180952381 8.79487179,0.542857143 9.69230769,1.44761905 C10.5897436,2.35238095 11.1282051,3.43809524 11.1282051,4.7047619 C11.1282051,5.60952381 10.9487179,6.33333333 10.4102564,6.87619048 C10.0512821,7.6 9.33333333,7.96190476 8.61538462,8.32380952 C9.51282051,8.68571429 10.2307692,9.22857143 10.7692308,9.95238095 C11.3076923,10.6761905 11.4871795,11.5809524 11.4871795,12.4857143 C11.4871795,14.1142857 10.9487179,15.3809524 9.87179487,16.4666667 C8.79487179,17.552381 7.53846154,17.9142857 5.74358974,17.9142857 C4.12820513,17.9142857 2.87179487,17.552381 1.79487179,16.647619 C0.538461538,15.7428571 0,14.2952381 0,12.4857143 C0,11.5809524 0.179487179,10.6761905 0.717948718,9.95238095 C1.07692308,9.40952381 1.79487179,8.68571429 2.87179487,8.32380952 Z M3.23076923,12.4857143 C3.23076923,13.3904762 3.41025641,14.1142857 3.94871795,14.6571429 C4.48717949,15.2 5.02564103,15.3809524 5.74358974,15.3809524 C6.46153846,15.3809524 7,15.2 7.53846154,14.6571429 C8.07692308,14.1142857 8.25641026,13.3904762 8.25641026,12.4857143 C8.25641026,11.5809524 8.07692308,11.0380952 7.53846154,10.4952381 C7,9.95238095 6.46153846,9.77142857 5.74358974,9.77142857 C4.84615385,9.77142857 4.30769231,10.1333333 3.94871795,10.6761905 C3.41025641,11.2190476 3.23076923,11.7619048 3.23076923,12.4857143 Z M3.41025641,4.88571429 C3.41025641,5.60952381 3.58974359,6.15238095 3.94871795,6.51428571 C4.30769231,6.87619048 4.84615385,7.05714286 5.38461538,7.05714286 C6.1025641,7.05714286 6.46153846,6.87619048 6.82051282,6.51428571 C7.17948718,6.15238095 7.35897436,5.60952381 7.35897436,4.88571429 C7.35897436,4.34285714 7.17948718,3.8 6.82051282,3.43809524 C6.46153846,3.07619048 5.92307692,2.8952381 5.38461538,2.8952381 C4.66666667,2.8952381 4.30769231,3.07619048 3.76923077,3.43809524 C3.23076923,3.8 3.41025641,4.34285714 3.41025641,4.88571429 Z" id="Shape" fill="#929497" fill-rule="nonzero"></path>
                            <polygon id="Path" fill="#929497" points="14.1794872 17.7333333 14.1794872 14.2952381 17.5897436 14.2952381 17.5897436 17.7333333"></polygon>
                            <path d="M20.2820513,13.752381 L23.5128205,13.3904762 C23.5128205,14.1142857 23.8717949,14.4761905 24.0512821,14.8380952 C24.4102564,15.2 24.7692308,15.3809524 25.3076923,15.3809524 C26.025641,15.3809524 26.5641026,15.0190476 27.1025641,14.4761905 C27.6410256,13.752381 27.8205128,12.4857143 28,10.4952381 C27.1025641,11.4 26.025641,11.9428571 24.7692308,11.9428571 C23.3333333,11.9428571 22.2564103,11.4 21.1794872,10.3142857 C20.1025641,9.22857143 19.7435897,7.78095238 19.7435897,6.15238095 C19.7435897,4.34285714 20.2820513,2.8952381 21.3589744,1.80952381 C22.4358974,0.723809524 23.6923077,0.180952381 25.3076923,0.180952381 C27.1025641,0.180952381 28.5384615,0.904761905 29.6153846,2.17142857 C30.6923077,3.61904762 31.2307692,5.79047619 31.2307692,9.04761905 C31.2307692,12.3047619 30.6923077,14.6571429 29.4358974,15.9238095 C28.1794872,17.3714286 26.7435897,18.0952381 24.7692308,18.0952381 C23.3333333,18.0952381 22.2564103,17.7333333 21.5384615,17.0095238 C21,16.2857143 20.4615385,15.2 20.2820513,13.752381 Z M27.8205128,6.33333333 C27.8205128,5.24761905 27.6410256,4.34285714 27.1025641,3.8 C26.5641026,3.25714286 26.025641,2.8952381 25.3076923,2.8952381 C24.7692308,2.8952381 24.2307692,3.07619048 23.6923077,3.61904762 C23.1538462,4.16190476 23.1538462,4.88571429 23.1538462,5.97142857 C23.1538462,7.05714286 23.3333333,7.96190476 23.8717949,8.5047619 C24.2307692,9.04761905 24.9487179,9.22857143 25.4871795,9.22857143 C26.2051282,9.22857143 26.7435897,9.04761905 27.1025641,8.5047619 C27.6410256,8.14285714 27.8205128,7.41904762 27.8205128,6.33333333 Z" id="Shape" fill="#929497" fill-rule="nonzero"></path>
                            <path d="M40.3846154,11.2190476 C40.3846154,10.1333333 40.7435897,9.04761905 41.2820513,7.96190476 C41.8205128,6.87619048 42.5384615,6.15238095 43.6153846,5.60952381 C44.6923077,5.06666667 45.7692308,4.7047619 47.025641,4.7047619 C49,4.7047619 50.4358974,5.24761905 51.6923077,6.51428571 C52.9487179,7.78095238 53.4871795,9.40952381 53.4871795,11.2190476 C53.4871795,13.2095238 52.9487179,14.6571429 51.6923077,15.9238095 C50.4358974,17.1904762 48.8205128,17.7333333 47.025641,17.7333333 C45.9487179,17.7333333 44.6923077,17.552381 43.7948718,17.0095238 C42.7179487,16.4666667 42,15.7428571 41.4615385,14.6571429 C40.9230769,13.5714286 40.3846154,12.6666667 40.3846154,11.2190476 Z M43.974359,11.4 C43.974359,12.6666667 44.3333333,13.5714286 44.8717949,14.2952381 C45.4102564,15.0190476 46.1282051,15.3809524 47.025641,15.3809524 C47.9230769,15.3809524 48.6410256,15.0190476 49.1794872,14.2952381 C49.7179487,13.5714286 50.0769231,12.6666667 50.0769231,11.4 C50.0769231,10.1333333 49.7179487,9.22857143 49.1794872,8.5047619 C48.6410256,7.78095238 47.9230769,7.41904762 47.025641,7.41904762 C46.1282051,7.41904762 45.4102564,7.78095238 44.8717949,8.5047619 C44.1538462,9.22857143 43.974359,10.1333333 43.974359,11.4 Z" id="Shape" fill="#929497" fill-rule="nonzero"></path>
                            <path d="M64.4358974,17.7333333 L64.4358974,15.9238095 C63.8974359,16.647619 63.3589744,17.1904762 62.6410256,17.552381 C61.9230769,17.9142857 61.025641,18.0952381 60.3076923,18.0952381 C59.4102564,18.0952381 58.6923077,17.9142857 57.974359,17.552381 C57.2564103,17.1904762 56.8974359,16.647619 56.5384615,15.9238095 C56.1794872,15.2 56,14.2952381 56,13.0285714 L56,5.06666667 L59.4102564,5.06666667 L59.4102564,10.8571429 C59.4102564,12.6666667 59.4102564,13.752381 59.5897436,14.1142857 C59.7692308,14.4761905 59.9487179,14.8380952 60.3076923,15.0190476 C60.6666667,15.2 61.025641,15.3809524 61.5641026,15.3809524 C62.1025641,15.3809524 62.6410256,15.2 63.1794872,14.8380952 C63.7179487,14.4761905 63.8974359,14.1142857 64.0769231,13.752381 C64.2564103,13.3904762 64.2564103,12.1238095 64.2564103,10.3142857 L64.2564103,4.88571429 L67.6666667,4.88571429 L67.6666667,17.552381 L64.4358974,17.552381 L64.4358974,17.7333333 L64.4358974,17.7333333 Z" id="Path" fill="#929497"></path>
                            <path d="M76.8205128,5.06666667 L76.8205128,7.78095238 L74.4871795,7.78095238 L74.4871795,12.847619 C74.4871795,13.9333333 74.4871795,14.4761905 74.4871795,14.6571429 C74.4871795,14.8380952 74.6666667,15.0190476 74.8461538,15.0190476 C75.025641,15.2 75.2051282,15.2 75.3846154,15.2 C75.7435897,15.2 76.1025641,15.0190476 76.6410256,14.8380952 L77,17.3714286 C76.2820513,17.7333333 75.3846154,17.9142857 74.3076923,17.9142857 C73.7692308,17.9142857 73.2307692,17.7333333 72.6923077,17.552381 C72.1538462,17.3714286 71.7948718,17.0095238 71.6153846,16.8285714 C71.4358974,16.4666667 71.2564103,16.1047619 71.0769231,15.5619048 C71.0769231,15.2 70.8974359,14.2952381 70.8974359,13.2095238 L70.8974359,7.6 L69.6410256,7.6 L69.6410256,5.06666667 L71.2564103,5.06666667 L71.2564103,2.53333333 L74.6666667,0.542857143 L74.6666667,5.06666667 L76.8205128,5.06666667 Z" id="Path" fill="#929497"></path>
                            <path d="M85.0769231,11.2190476 C85.0769231,10.1333333 85.4358974,9.04761905 85.974359,7.96190476 C86.5128205,6.87619048 87.2307692,6.15238095 88.3076923,5.60952381 C89.3846154,5.06666667 90.4615385,4.7047619 91.7179487,4.7047619 C93.6923077,4.7047619 95.1282051,5.24761905 96.3846154,6.51428571 C97.6410256,7.78095238 98.1794872,9.40952381 98.1794872,11.2190476 C98.1794872,13.2095238 97.6410256,14.6571429 96.3846154,15.9238095 C95.1282051,17.1904762 93.5128205,17.7333333 91.7179487,17.7333333 C90.6410256,17.7333333 89.3846154,17.552381 88.4871795,17.0095238 C87.4102564,16.4666667 86.6923077,15.7428571 86.1538462,14.6571429 C85.6153846,13.5714286 85.0769231,12.6666667 85.0769231,11.2190476 Z M88.4871795,11.4 C88.4871795,12.6666667 88.8461538,13.5714286 89.3846154,14.2952381 C89.9230769,15.0190476 90.6410256,15.3809524 91.5384615,15.3809524 C92.4358974,15.3809524 93.1538462,15.0190476 93.6923077,14.2952381 C94.2307692,13.5714286 94.5897436,12.6666667 94.5897436,11.4 C94.5897436,10.1333333 94.2307692,9.22857143 93.6923077,8.5047619 C93.1538462,7.78095238 92.4358974,7.41904762 91.5384615,7.41904762 C90.6410256,7.41904762 89.9230769,7.78095238 89.3846154,8.5047619 C88.8461538,9.22857143 88.4871795,10.1333333 88.4871795,11.4 Z" id="Shape" fill="#929497" fill-rule="nonzero"></path>
                            <path d="M99.2564103,5.06666667 L101.051282,5.06666667 L101.051282,4.16190476 C101.051282,3.07619048 101.230769,2.35238095 101.410256,1.80952381 C101.589744,1.26666667 102.128205,0.904761905 102.666667,0.542857143 C103.205128,0.180952381 104.102564,0 105,0 C105.897436,0 106.794872,0.180952381 107.871795,0.361904762 L107.333333,2.71428571 C106.794872,2.53333333 106.25641,2.53333333 105.717949,2.53333333 C105.179487,2.53333333 104.820513,2.71428571 104.641026,2.8952381 C104.461538,3.07619048 104.282051,3.61904762 104.282051,4.16190476 L104.282051,5.06666667 L106.794872,5.06666667 L106.794872,7.78095238 L104.282051,7.78095238 L104.282051,17.9142857 L100.871795,17.9142857 L100.871795,7.78095238 L99.0769231,7.78095238 L99.2564103,5.06666667 L99.2564103,5.06666667 Z" id="Path" fill="#929497"></path>
                            <path d="M123.487179,17.7333333 L120.076923,17.7333333 L120.076923,5.06666667 C118.820513,6.15238095 117.384615,7.05714286 115.769231,7.6 L115.769231,4.52380952 C116.666667,4.16190476 117.564103,3.61904762 118.641026,2.8952381 C119.717949,2.17142857 120.435897,1.08571429 120.794872,0 L123.487179,0 L123.487179,17.7333333 L123.487179,17.7333333 Z" id="Path" fill="#929497"></path>
                            <path d="M134.076923,0.180952381 C135.692308,0.180952381 137.128205,0.723809524 138.025641,1.99047619 C139.102564,3.43809524 139.641026,5.79047619 139.641026,9.22857143 C139.641026,12.4857143 139.102564,15.0190476 137.846154,16.4666667 C136.948718,17.7333333 135.512821,18.2761905 133.897436,18.2761905 C132.282051,18.2761905 130.846154,17.552381 129.769231,16.2857143 C128.692308,15.0190476 128.153846,12.6666667 128.153846,9.22857143 C128.153846,5.97142857 128.692308,3.61904762 129.948718,2.17142857 C131.025641,0.723809524 132.461538,0.180952381 134.076923,0.180952381 Z M134.076923,2.8952381 C133.717949,2.8952381 133.358974,3.07619048 133,3.25714286 C132.641026,3.43809524 132.461538,3.98095238 132.282051,4.7047619 C132.102564,5.60952381 131.923077,7.05714286 131.923077,9.04761905 C131.923077,11.0380952 132.102564,12.4857143 132.282051,13.2095238 C132.461538,13.9333333 132.820513,14.4761905 133,14.8380952 C133.358974,15.0190476 133.717949,15.2 134.076923,15.2 C134.435897,15.2 134.794872,15.0190476 135.153846,14.8380952 C135.512821,14.6571429 135.692308,14.1142857 135.871795,13.3904762 C136.051282,12.4857143 136.230769,11.0380952 136.230769,9.04761905 C136.230769,7.05714286 136.051282,5.60952381 135.871795,4.88571429 C135.692308,4.16190476 135.333333,3.61904762 135.153846,3.25714286 C134.794872,3.07619048 134.435897,2.8952381 134.076923,2.8952381 Z" id="Shape" fill="#929497" fill-rule="nonzero"></path>
                        </g>
                    </g>
                </g>
            </g>
        </g>
    </g>
</svg>