<?xml version="1.0" encoding="UTF-8"?>
<svg width="58px" height="57px" viewBox="0 0 58 57" version="1.1" xmlns="http://www.w3.org/2000/svg" xmlns:xlink="http://www.w3.org/1999/xlink">
    <title>Group 18</title>
    <defs>
        <linearGradient x1="0%" y1="1.98%" x2="100%" y2="98.02%" id="linearGradient-1">
            <stop stop-color="#09DBBE" offset="0%"></stop>
            <stop stop-color="#02D080" offset="100%"></stop>
        </linearGradient>
        <path d="M17.7677244,-1.62467147e-15 L32.2322756,-1.88996806e-16 C38.4105004,1.09812587e-16 40.6508741,0.643281485 42.9095407,1.85122964 C45.1682074,3.05917779 46.9408222,4.83179261 48.1487704,7.09045927 C49.3567185,9.34912594 50,11.5894996 50,17.7677244 L50,31.2322756 C50,37.4105004 49.3567185,39.6508741 48.1487704,41.9095407 C46.9408222,44.1682074 45.1682074,45.9408222 42.9095407,47.1487704 C40.6508741,48.3567185 38.4105004,49 32.2322756,49 L17.7677244,49 C11.5894996,49 9.34912594,48.3567185 7.09045927,47.1487704 C4.83179261,45.9408222 3.05917779,44.1682074 1.85122964,41.9095407 C0.643281485,39.6508741 8.04952858e-16,37.4105004 -1.38539236e-15,31.2322756 L-4.28275917e-16,17.7677244 C2.48840641e-16,11.5894996 0.643281485,9.34912594 1.85122964,7.09045927 C3.05917779,4.83179261 4.83179261,3.05917779 7.09045927,1.85122964 C9.34912594,0.643281485 11.5894996,9.43980913e-16 17.7677244,-1.62467147e-15 Z" id="path-2"></path>
        <filter x="-14.0%" y="-10.2%" width="128.0%" height="128.6%" filterUnits="objectBoundingBox" id="filter-3">
            <feOffset dx="0" dy="2" in="SourceAlpha" result="shadowOffsetOuter1"></feOffset>
            <feGaussianBlur stdDeviation="2" in="shadowOffsetOuter1" result="shadowBlurOuter1"></feGaussianBlur>
            <feColorMatrix values="0 0 0 0 0.141176471   0 0 0 0 0.031372549   0 0 0 0 0.501960784  0 0 0 0.15 0" type="matrix" in="shadowBlurOuter1"></feColorMatrix>
        </filter>
    </defs>
    <g id="Desktop" stroke="none" stroke-width="1" fill="none" fill-rule="evenodd">
        <g id="Home-Light-" transform="translate(-989.000000, -1122.000000)">
            <g id="Group-35" transform="translate(202.000000, 1094.000000)">
                <g id="Group-18" transform="translate(791.000000, 30.000000)">
                    <g id="Rectangle-9">
                        <use fill="black" fill-opacity="1" filter="url(#filter-3)" xlink:href="#path-2"></use>
                        <use fill="url(#linearGradient-1)" fill-rule="evenodd" xlink:href="#path-2"></use>
                    </g>
                    <g id="play" transform="translate(18.000000, 14.700000)"></g>
                    <path d="M31.8737359,19.8603125 L26.4643026,19.8603125 L28.0870248,14.083247 C28.2773377,13.4055712 27.7385553,12.74 27,12.74 L20.6249778,12.74 C20.0611172,12.74 19.5843506,13.1362899 19.5098661,13.6668867 L18.0100504,24.3473554 C17.9200971,24.987694 18.4454732,25.5565625 19.1251621,25.5565625 L24.6892832,25.5565625 L22.5302631,34.2106793 C22.3617002,34.8863525 22.9058732,35.525 23.6246091,35.525 C24.0160162,35.525 24.3922357,35.3303485 24.5985799,34.9919556 L32.8473317,21.4634954 C33.2806452,20.7529327 32.7400815,19.8603125 31.8737359,19.8603125 L31.8737359,19.8603125 Z" id="Mask" fill="#FFFFFF"></path>
                </g>
            </g>
        </g>
    </g>
</svg>