<?xml version="1.0" encoding="UTF-8"?>
<svg width="20px" height="20px" viewBox="0 0 20 20" version="1.1" xmlns="http://www.w3.org/2000/svg" xmlns:xlink="http://www.w3.org/1999/xlink">
    <title>nine-circles</title>
    <g id="Symbols" stroke="none" stroke-width="1" fill="none" fill-rule="evenodd">
        <g id="nine-circles" transform="translate(-0.000000, 0.000000)" fill="#FFFFFF" fill-rule="nonzero">
            <path d="M10,4.8 C8.67657537,4.8 7.6,3.72342463 7.6,2.4 C7.6,1.07657537 8.67657537,0 10,0 C11.3230799,0 12.4,1.07657537 12.4,2.4 C12.4,3.72342463 11.3231373,4.8 10,4.8 Z" id="Path"></path>
            <path d="M2.4,4.8 C1.07657537,4.8 0,3.72342463 0,2.4 C0,1.07657537 1.07657537,0 2.4,0 C3.72342463,0 4.8,1.07657537 4.8,2.4 C4.8,3.72342463 3.72342463,4.8 2.4,4.8 Z" id="Path"></path>
            <path d="M17.6,4.8 C16.2769201,4.8 15.2,3.72342463 15.2,2.4 C15.2,1.07657537 16.2769201,0 17.6,0 C18.9230799,0 20,1.07657537 20,2.4 C20,3.72342463 18.9234246,4.8 17.6,4.8 Z" id="Path"></path>
            <path d="M10,12.4 C8.67657537,12.4 7.6,11.3230799 7.6,10 C7.6,8.67657537 8.67657537,7.6 10,7.6 C11.3230799,7.6 12.4,8.67692013 12.4,10 C12.4,11.3230799 11.3230799,12.4 10,12.4 Z" id="Path"></path>
            <path d="M2.40043856,12.4 C1.07701393,12.4 0.000438556547,11.3230799 0.000438556547,10 C0.000438556547,8.67657537 1.07701393,7.6 2.40043856,7.6 C3.72386319,7.6 4.80043856,8.67692013 4.80043856,10 C4.80043856,11.3230799 3.72386319,12.4 2.40043856,12.4 Z" id="Path"></path>
            <path d="M17.6,12.4 C16.2769201,12.4 15.2,11.3230799 15.2,10 C15.2,8.67657537 16.2769201,7.6 17.6,7.6 C18.9230799,7.6 20,8.67692013 20,10 C20,11.3230799 18.9234246,12.4 17.6,12.4 Z" id="Path"></path>
            <path d="M10,20 C8.67657537,20 7.6,18.9230799 7.6,17.6 C7.6,16.2769201 8.67657537,15.2 10,15.2 C11.3230799,15.2 12.4,16.2769201 12.4,17.6 C12.4,18.9230799 11.3230799,20 10,20 Z" id="Path"></path>
            <path d="M2.40043856,20 C1.07701393,20 0.000438556547,18.9230799 0.000438556547,17.6 C0.000438556547,16.2769201 1.07701393,15.2 2.40043856,15.2 C3.72386319,15.2 4.80043856,16.2769201 4.80043856,17.6 C4.80043856,18.9230799 3.72386319,20 2.40043856,20 Z" id="Path"></path>
            <path d="M17.6,20 C16.2769201,20 15.2,18.9230799 15.2,17.6 C15.2,16.2769201 16.2769201,15.2 17.6,15.2 C18.9230799,15.2 20,16.2769201 20,17.6 C20,18.9230799 18.9234246,20 17.6,20 Z" id="Path"></path>
        </g>
    </g>
</svg>