<?xml version="1.0" encoding="UTF-8"?>
<svg width="16px" height="15px" viewBox="0 0 16 15" version="1.1" xmlns="http://www.w3.org/2000/svg" xmlns:xlink="http://www.w3.org/1999/xlink">
    <title>b2c-homepage-intro__money-back</title>
    <defs>
        <polygon id="path-1" points="0 0.0442514286 15.36 0.0442514286 15.36 13.2754286 0 13.2754286"></polygon>
        <polygon id="path-3" points="0 0.0442514286 15.36 0.0442514286 15.36 13.2754286 0 13.2754286"></polygon>
    </defs>
    <g id="Desktop" stroke="none" stroke-width="1" fill="none" fill-rule="evenodd" opacity="0.8">
        <g id="Home-Light-" transform="translate(-639.000000, -410.000000)">
            <g id="b2c-homepage-intro__money-back" transform="translate(639.000000, 410.000000)">
                <g id="Group" transform="translate(0.000000, 0.257966)">
                    <g id="Clipped">
                        <mask id="mask-2" fill="white">
                            <use xlink:href="#path-1"></use>
                        </mask>
                        <g id="a"></g>
                        <path d="M9.183744,7.45586286 C9.306624,7.49056 9.42592,7.52626286 9.54112,7.57152 C9.746432,7.65147429 9.999872,7.82596571 10.058752,8.01101714 C10.10688,8.16438857 10.098176,8.34139429 10.005504,8.46710857 C9.801728,8.74267429 9.550848,8.80402286 9.247744,8.83872 C9.227776,8.84123429 9.204224,8.84224 9.183744,8.84374857 L9.183744,7.45586286 L9.183744,7.45586286 Z M8.058368,4.56946286 L8.058368,5.7904 C7.9622784,5.75948654 7.86964121,5.71904967 7.781888,5.66971429 C7.670784,5.60484571 7.58016,5.52539429 7.525376,5.41828571 C7.464448,5.29961143 7.473664,5.1568 7.514624,5.03058286 C7.538176,4.96018286 7.592448,4.88475429 7.632384,4.83698286 C7.692288,4.76457143 7.765504,4.71076571 7.856128,4.65897143 C7.92074707,4.62317552 7.98862512,4.59337786 8.05888,4.56996571 L8.058368,4.56946286 Z M8.159744,2.30154383 C8.13358298,2.30090241 8.10822785,2.31050059 8.08929542,2.32824545 C8.070363,2.3459903 8.05941619,2.37041697 8.05888,2.39611429 L8.05888,3.16548571 C7.67330351,3.23704477 7.30218487,3.36986507 6.960128,3.55872 C6.719488,3.69298286 6.52032,3.85993143 6.351872,4.04598857 C6.19211132,4.22379983 6.07226334,4.43265842 6.000128,4.65897143 C5.967872,4.75552 5.933568,4.86061714 5.919744,4.98331429 C5.90686662,5.11570322 5.90515412,5.24891109 5.914624,5.38157714 C5.923328,5.51433143 5.953536,5.65010286 6.000128,5.7904 C6.04416,5.92516571 6.095872,6.06596571 6.192128,6.19369143 C6.670336,6.82980571 7.35744,7.04452571 8.05888,7.19940571 L8.05888,8.75977143 C7.92886687,8.73268318 7.80063436,8.69792301 7.67488,8.65568 C7.4368,8.57371429 7.192064,8.44950857 6.933504,8.30468571 C5.776384,7.65549714 5.254144,9.2048 6.21312,9.62971429 C6.606336,9.80370286 6.96064,9.96059429 7.301632,10.0435657 C7.566336,10.1084343 7.818752,10.1541943 8.05888,10.1848686 L8.05888,10.9235657 C8.05888,10.9768686 8.105472,11.0181084 8.159744,11.0181084 L9.088,11.0181084 C9.1135668,11.0183777 9.1381608,11.0084893 9.15619207,10.9906853 C9.17422333,10.9728814 9.18416015,10.9486741 9.183744,10.9235657 L9.183744,10.2110171 C9.46201463,10.1928634 9.73750553,10.1454923 10.005504,10.0697143 C10.332672,9.97266286 10.5984,9.84242286 10.805248,9.68201143 C11.01568,9.51908571 11.167232,9.34258286 11.279872,9.14747429 C11.395072,8.94834286 11.479552,8.74418286 11.504128,8.53499429 C11.538432,8.24384 11.552768,7.97028571 11.504128,7.72288 C11.4494986,7.46161438 11.3345968,7.21613119 11.168256,7.00530286 C11.021312,6.81371429 10.742272,6.62011429 10.325504,6.43456 C10.030592,6.30381714 9.647616,6.17609143 9.183744,6.06244571 L9.183744,4.52219429 C9.306624,4.54432 9.4208,4.57197714 9.525248,4.60617143 C9.773568,4.68813714 9.988608,4.78569143 10.181632,4.89430857 C11.103744,5.41677714 11.805696,4.26573714 10.970112,3.74226286 C10.756608,3.608 10.4704,3.41540571 10.04288,3.28114286 C9.76368512,3.19420799 9.47555338,3.13788052 9.183744,3.11318857 L9.183744,2.39611429 C9.18430432,2.37096442 9.17441402,2.3466746 9.15635106,2.32883933 C9.13828811,2.31100406 9.11360976,2.30116097 9.088,2.30154383 L8.159744,2.30154383 Z" id="Shape" fill="#FFFFFF" fill-rule="nonzero" mask="url(#mask-2)"></path>
                    </g>
                    <g id="Clipped">
                        <mask id="mask-4" fill="white">
                            <use xlink:href="#path-3"></use>
                        </mask>
                        <g id="a"></g>
                        <path d="M8.624128,0.0442514286 C4.91008,0.0442514286 1.887744,3.01161143 1.887744,6.65984 C1.900032,6.73728 1.906176,6.82075429 1.909248,6.91126857 L0.66048,5.69083429 L0,6.34002286 L2.411008,8.70797714 L4.821504,6.34002286 L4.16512,5.69083429 L2.944,6.88411429 L2.944,6.45517714 C3.05152,3.46116571 5.548544,1.08114286 8.624128,1.08114286 C11.767808,1.08114286 14.303744,3.57179429 14.303744,6.65984 C14.3061951,8.14005198 13.7086122,9.56033826 12.6429606,10.6070547 C11.5773089,11.6537712 10.1312531,12.240811 8.624128,12.2385371 L8.624128,13.2754286 C12.3392,13.2754286 15.36,10.3075657 15.36,6.65984 C15.36,3.01161143 12.338688,0.0442514286 8.624128,0.0442514286 Z" id="Shape" fill="#FFFFFF" fill-rule="nonzero" opacity="0.5" mask="url(#mask-4)"></path>
                    </g>
                </g>
                <path d="M0.420352,10.8410971 C0.440832,10.7018057 0.480256,10.5796114 0.539648,10.4740114 C0.650523941,10.2711434 0.838349241,10.1193746 1.0624,10.0516114 C1.176576,10.0164114 1.298944,9.99830857 1.430016,9.99830857 C1.566208,9.99830857 1.690112,10.01792 1.79968,10.0556343 C1.90976,10.0938514 2.003456,10.1466514 2.08128,10.2145371 C2.23794704,10.348932 2.32635633,10.5443007 2.322944,10.7485714 C2.322944,10.8410971 2.312704,10.92256 2.2912,10.99296 C2.25605073,11.1248798 2.17039163,11.2383735 2.052096,11.30976 C1.98992986,11.3475301 1.92341594,11.3779143 1.853952,11.4002743 C2.031616,11.4555886 2.163712,11.5390629 2.251264,11.6517029 C2.338304,11.7643429 2.382848,11.9056457 2.382848,12.0761143 C2.382848,12.2209371 2.3552,12.3491657 2.300928,12.4602971 C2.24837911,12.5683649 2.17276924,12.6640621 2.079232,12.7408914 C1.987072,12.81632 1.87904,12.8741486 1.756672,12.9123657 C1.63129343,12.952031 1.50029677,12.9718898 1.368576,12.9712174 C1.220096,12.9712174 1.090048,12.9541029 0.979456,12.9209143 C0.768270869,12.8592433 0.589796499,12.719302 0.481792,12.5306971 C0.420650732,12.4262937 0.371210073,12.3156899 0.334336,12.2008229 L0.557568,12.1103086 C0.60907403,12.086947 0.666803862,12.0802558 0.722432,12.0912 C0.773632,12.1022629 0.811008,12.1294171 0.83456,12.1726629 C0.858624,12.2194286 0.88576,12.2661943 0.914944,12.3114514 C0.944128,12.3567086 0.979456,12.39744 1.020416,12.4331429 C1.11495574,12.5140017 1.23713314,12.5567547 1.362432,12.5528229 C1.44896,12.5528229 1.523712,12.5392457 1.587712,12.5115886 C1.64811315,12.4866812 1.70278918,12.4500834 1.74848,12.4039771 C1.83086764,12.3203965 1.87679212,12.2085376 1.87648,12.0922057 C1.87648,12.0223086 1.869312,11.9589486 1.853952,11.9021257 C1.83910397,11.8449281 1.80610951,11.7938546 1.759744,11.7562971 C1.69917486,11.7101005 1.62884905,11.6777991 1.55392,11.66176 C1.43599018,11.6359081 1.31529386,11.6242566 1.194496,11.6270629 L1.194496,11.2735543 C1.318912,11.2720457 1.421824,11.2609829 1.503744,11.23936 C1.585664,11.2177371 1.650688,11.1875657 1.699328,11.1498514 C1.74574307,11.114298 1.7809033,11.0665108 1.800704,11.0120686 C1.82056116,10.9551268 1.83026091,10.8952456 1.829376,10.8350629 C1.829376,10.6977829 1.790464,10.5941943 1.71264,10.5232914 C1.634816,10.4518857 1.53088,10.4166857 1.401344,10.4166857 C1.34501423,10.4160192 1.2889606,10.4245149 1.235456,10.4418286 C1.13873602,10.4732798 1.05524904,10.5351304 0.997888,10.6178286 C0.970306671,10.6585657 0.949562754,10.7033874 0.936448,10.7505829 C0.913408,10.8119314 0.882688,10.8531657 0.845312,10.8727771 C0.807936,10.8928914 0.7552,10.89792 0.686592,10.88736 L0.420352,10.8410971 L0.420352,10.8410971 Z M4.3264,11.4852571 C4.3264,11.2740571 4.310016,11.1000686 4.278784,10.9622857 C4.25581882,10.8460415 4.21324933,10.73438 4.152832,10.6319086 C4.10988242,10.5591387 4.04711347,10.4995804 3.971584,10.4599314 C3.83873278,10.3934757 3.68152322,10.3934757 3.548672,10.4599314 C3.47368477,10.4995979 3.41158249,10.5591971 3.369472,10.6319086 C3.30960305,10.734253 3.26771565,10.8457714 3.245568,10.9617829 C3.214848,11.1000686 3.199488,11.2740571 3.199488,11.4847543 C3.199488,11.6949486 3.214848,11.86944 3.245568,12.0077257 C3.276288,12.1455086 3.31776,12.2556343 3.369472,12.3376 C3.41158249,12.4103115 3.47368477,12.4699106 3.548672,12.5095771 C3.68152322,12.5760328 3.83873278,12.5760328 3.971584,12.5095771 C4.04711347,12.4699281 4.10988242,12.4103698 4.152832,12.3376 C4.21323978,12.2353038 4.25581049,12.1238091 4.278784,12.0077257 C4.310016,11.86944 4.325888,11.6949486 4.325888,11.4847543 L4.3264,11.4852571 Z M4.848128,11.4847543 C4.848128,11.7381943 4.82048,11.9584457 4.765184,12.1455086 C4.71965567,12.312958 4.64197533,12.4703234 4.53632,12.6091429 C4.44478342,12.7260544 4.32587774,12.8195493 4.189696,12.8816914 C4.056576,12.9410286 3.913216,12.9712 3.758592,12.9712 C3.603968,12.9712 3.461632,12.9410286 3.329536,12.8816914 C3.19440624,12.8194626 3.07668592,12.7259326 2.986496,12.6091429 C2.88112415,12.4703604 2.80394348,12.3129508 2.759168,12.1455086 C2.70082472,11.9300483 2.6732543,11.7076695 2.677248,11.4847543 C2.677248,11.2298057 2.704384,11.0095543 2.759168,10.8229943 C2.80392133,10.6558523 2.88110982,10.4987683 2.986496,10.3603657 C3.083776,10.2381714 3.19744,10.1471543 3.329536,10.0878171 C3.461632,10.0279771 3.603968,9.99830857 3.758592,9.99830857 C3.912704,9.99830857 4.056576,10.02848 4.189696,10.0878171 C4.322816,10.1471543 4.438016,10.2381714 4.53632,10.3603657 C4.6336,10.4820571 4.7104,10.6364343 4.765184,10.8229943 C4.82048,11.0090514 4.848128,11.2303086 4.848128,11.4847543 L4.848128,11.4847543 Z" id="Shape" fill="#FFFFFF" fill-rule="nonzero" opacity="0.5"></path>
            </g>
        </g>
    </g>
</svg>