<?xml version="1.0" encoding="UTF-8"?>
<svg width="22px" height="19px" viewBox="0 0 22 19" version="1.1" xmlns="http://www.w3.org/2000/svg" xmlns:xlink="http://www.w3.org/1999/xlink">
    <title>Mask</title>
    <g id="Desktop" stroke="none" stroke-width="1" fill="none" fill-rule="evenodd">
        <g id="Home-Light-" transform="translate(-264.000000, -2327.000000)" fill="#FFFFFF">
            <g id="Group-30" transform="translate(202.000000, 1994.000000)">
                <g id="Group-15" transform="translate(53.000000, 61.000000)">
                    <g id="Group-11" transform="translate(0.000000, 256.000000)">
                        <g id="Group-16" transform="translate(9.000000, 14.000000)">
                            <path d="M19.9375,2 L2.0625,2 C0.923398437,2 0,2.91140625 0,4.03571429 L0,18.9642857 C0,20.0885938 0.923398437,21 2.0625,21 L19.9375,21 C21.0766016,21 22,20.0885938 22,18.9642857 L22,4.03571429 C22,2.91140625 21.0766016,2 19.9375,2 Z M19.6150744,18.8888889 L2.38492556,18.8888889 C2.24359959,18.8888889 2.12903226,18.7761121 2.12903226,18.6369949 L2.12903226,4.36300505 C2.12903226,4.22388787 2.24359959,4.11111111 2.38492556,4.11111111 L19.6150744,4.11111111 C19.7564004,4.11111111 19.8709677,4.22388787 19.8709677,4.36300505 L19.8709677,18.6369949 C19.8709677,18.7761121 19.7564004,18.8888889 19.6150744,18.8888889 Z M18.4516129,15.1944444 L18.4516129,16.25 C18.4516129,16.5414653 18.2132944,16.7777778 17.9193548,16.7777778 L9.0483871,16.7777778 C8.75444758,16.7777778 8.51612903,16.5414653 8.51612903,16.25 L8.51612903,15.1944444 C8.51612903,14.9029792 8.75444758,14.6666667 9.0483871,14.6666667 L17.9193548,14.6666667 C18.2132944,14.6666667 18.4516129,14.9029792 18.4516129,15.1944444 Z M18.4516129,10.9722222 L18.4516129,12.0277778 C18.4516129,12.3192431 18.2132944,12.5555556 17.9193548,12.5555556 L9.0483871,12.5555556 C8.75444758,12.5555556 8.51612903,12.3192431 8.51612903,12.0277778 L8.51612903,10.9722222 C8.51612903,10.6807569 8.75444758,10.4444444 9.0483871,10.4444444 L17.9193548,10.4444444 C18.2132944,10.4444444 18.4516129,10.6807569 18.4516129,10.9722222 Z M18.4516129,6.75 L18.4516129,7.80555556 C18.4516129,8.09702083 18.2132944,8.33333333 17.9193548,8.33333333 L9.0483871,8.33333333 C8.75444758,8.33333333 8.51612903,8.09702083 8.51612903,7.80555556 L8.51612903,6.75 C8.51612903,6.45853472 8.75444758,6.22222222 9.0483871,6.22222222 L17.9193548,6.22222222 C18.2132944,6.22222222 18.4516129,6.45853472 18.4516129,6.75 Z M7.09677419,7.62962963 C7.09677419,8.40690947 6.46129749,9.03703704 5.67741935,9.03703704 C4.89354122,9.03703704 4.25806452,8.40690947 4.25806452,7.62962963 C4.25806452,6.85234979 4.89354122,6.22222222 5.67741935,6.22222222 C6.46129749,6.22222222 7.09677419,6.85234979 7.09677419,7.62962963 Z M7.09677419,11.1481481 C7.09677419,11.925428 6.46129749,12.5555556 5.67741935,12.5555556 C4.89354122,12.5555556 4.25806452,11.925428 4.25806452,11.1481481 C4.25806452,10.3708683 4.89354122,9.74074074 5.67741935,9.74074074 C6.46129749,9.74074074 7.09677419,10.3708683 7.09677419,11.1481481 Z M7.09677419,15.3703704 C7.09677419,16.1476502 6.46129749,16.7777778 5.67741935,16.7777778 C4.89354122,16.7777778 4.25806452,16.1476502 4.25806452,15.3703704 C4.25806452,14.5930905 4.89354122,13.962963 5.67741935,13.962963 C6.46129749,13.962963 7.09677419,14.5930905 7.09677419,15.3703704 Z" id="Mask"></path>
                        </g>
                    </g>
                </g>
            </g>
        </g>
    </g>
</svg>