<svg width="29" height="29" viewBox="0 0 29 29" xmlns="http://www.w3.org/2000/svg" xmlns:xlink="http://www.w3.org/1999/xlink"><defs><linearGradient x1="50%" y1="0%" x2="50%" y2="100%" id="a"><stop stop-color="#7CBEFF" offset="0%"/><stop stop-color="#5288CF" offset="100%"/></linearGradient><path d="M14.5,7.625 C16.5710678,7.625 18.25,9.30393219 18.25,11.375 L18.25,11.375 L18.25,13.25 L18.875,13.25 C19.9105339,13.25 20.75,14.0894661 20.75,15.125 L20.75,19.5 C20.75,20.5355339 19.9105339,21.375 18.875,21.375 L10.125,21.375 C9.08946609,21.375 8.25,20.5355339 8.25,19.5 L8.25,15.125 C8.25,14.0894661 9.08946609,13.25 10.125,13.25 L10.75,13.25 L10.75,11.375 C10.75,9.37074083 12.3223611,7.73372626 14.3008414,7.63019801 Z M18.875,14.5 L10.125,14.5 C9.77982203,14.5 9.5,14.779822 9.5,15.125 L9.5,19.5 C9.5,19.845178 9.77982203,20.125 10.125,20.125 L18.875,20.125 C19.220178,20.125 19.5,19.845178 19.5,19.5 L19.5,15.125 C19.5,14.779822 19.220178,14.5 18.875,14.5 Z M14.5,8.875 C13.1192881,8.875 12,9.99428813 12,11.375 L12,11.375 L11.999,13.25 L17,13.25 L17,11.375 C17,10.0495166 15.9684641,8.96496133 14.6643757,8.88031768 Z" id="b"/></defs><g fill="none" fill-rule="evenodd"><circle fill="url(#a)" cx="14.5" cy="14.5" r="14.5"/><use fill="#FFF" xlink:href="#b"/></g></svg>