<?xml version="1.0" encoding="UTF-8"?>
<svg width="159px" height="30px" viewBox="0 0 159 30" version="1.1" xmlns="http://www.w3.org/2000/svg" xmlns:xlink="http://www.w3.org/1999/xlink">
    <title>logo</title>
    <g id="Symbols" stroke="none" stroke-width="1" fill="none" fill-rule="evenodd">
        <g id="Navbar-Light" transform="translate(-183.000000, -19.000000)">
            <g id="logo" transform="translate(185.000000, 21.000000)">
                <path d="M14.172864,0 C6.34540735,0 0,5.83706545 0,13.0374506 C0,20.2378357 6.34540735,26.0749012 14.172864,26.0749012" id="Path" stroke="#FFFFFF" stroke-width="3.76270726" stroke-linecap="round"></path>
                <path d="M11.3243855,8.27486218 C10.1529036,7.53040434 9.20322988,8.04504616 9.20322988,9.44185423 L9.20322988,16.766172 C9.20322988,18.1551417 10.1529541,18.6775898 11.3243855,17.933164 L16.8024014,14.4519733 C17.9738833,13.7075154 17.9738328,12.5004787 16.8024014,11.7560529 L11.3243855,8.27486218 Z" id="Mask" fill="#FFFFFF"></path>
                <path d="M35.3223464,20.25 C36.369656,20.25 37.2766493,20.0802754 38.0433262,19.7408261 C38.8100031,19.4013768 39.4479361,18.8980054 39.9571253,18.2307119 L39.9571253,18.2307119 L38.7940909,17.0034721 C38.7304423,16.9396441 38.6639005,16.8946743 38.5944656,16.8685628 C38.5250307,16.8424513 38.4555958,16.8293956 38.3861609,16.8293956 C38.2993673,16.8293956 38.2154668,16.8482539 38.1344595,16.8859704 C38.0534521,16.923687 37.978231,16.9715581 37.9087961,17.0295836 C37.7352088,17.18045 37.5630682,17.3066555 37.3923741,17.4082001 C37.22168,17.5097448 37.0423065,17.5924312 36.8542537,17.6562592 C36.6662009,17.7200873 36.4622359,17.7650571 36.2423587,17.7911686 C36.0224816,17.8172801 35.7794595,17.8303358 35.5132924,17.8303358 C35.0503931,17.8303358 34.6164251,17.7403962 34.2113882,17.5605171 C33.8063514,17.380638 33.4519441,17.1180725 33.1481665,16.7728207 C32.8443888,16.4275688 32.6042598,16.0025319 32.4277795,15.4977099 C32.2512991,14.9928878 32.163059,14.4155339 32.163059,13.7656481 C32.163059,13.144775 32.2512991,12.5848287 32.4277795,12.0858093 C32.6042598,11.5867898 32.8501751,11.1617529 33.1655252,10.8106985 C33.4808753,10.4596441 33.8584275,10.1898254 34.2981818,10.0012424 C34.7379361,9.8126595 35.2239803,9.71836803 35.7563145,9.71836803 C36.0629853,9.71836803 36.3305989,9.74157824 36.5591554,9.78799866 C36.7877119,9.83441907 36.9873372,9.89099396 37.1580313,9.9577233 C37.3287254,10.0244527 37.4762746,10.0969846 37.6006787,10.175319 C37.7250829,10.2536535 37.8393612,10.3261854 37.9435135,10.3929147 C38.0476658,10.4596441 38.1460319,10.5162189 38.2386118,10.5626394 C38.3311916,10.6090598 38.4295577,10.63227 38.5337101,10.63227 C38.6899386,10.63227 38.8114496,10.5989053 38.8982432,10.532176 C38.9850369,10.4654466 39.060258,10.3914641 39.1239066,10.3102283 L39.1239066,10.3102283 L40.1133538,8.97854265 C39.8761179,8.72903291 39.6041646,8.50128274 39.2974939,8.29529214 C38.9908231,8.08930154 38.6552211,7.91232371 38.290688,7.76435863 C37.9261548,7.61639355 37.534137,7.50034251 37.1146345,7.41620551 C36.6951321,7.3320685 36.248145,7.29 35.7736732,7.29 C34.7957985,7.29 33.9018243,7.44957018 33.0917506,7.76871054 C32.2816769,8.08785091 31.5858814,8.53464741 31.0043643,9.10910007 C30.4228471,9.68355272 29.9700737,10.3668032 29.6460442,11.1588516 C29.3220147,11.9508999 29.16,12.8198321 29.16,13.7656481 C29.16,14.6940564 29.3017629,15.5542848 29.5852887,16.3463331 C29.8688145,17.1383815 30.2752979,17.8230826 30.8047389,18.4004365 C31.33418,18.9777905 31.9793458,19.4303895 32.7402365,19.7582337 C33.5011271,20.0860779 34.3618305,20.25 35.3223464,20.25 Z M46.727027,20.25 C47.7743366,20.25 48.6813299,20.0802754 49.4480068,19.7408261 C50.2146837,19.4013768 50.8526167,18.8980054 51.3618059,18.2307119 L51.3618059,18.2307119 L50.1987715,17.0034721 C50.1351229,16.9396441 50.0685811,16.8946743 49.9991462,16.8685628 C49.9297113,16.8424513 49.8602764,16.8293956 49.7908415,16.8293956 C49.7040479,16.8293956 49.6201474,16.8482539 49.53914,16.8859704 C49.4581327,16.923687 49.3829115,16.9715581 49.3134767,17.0295836 C49.1398894,17.18045 48.9677488,17.3066555 48.7970547,17.4082001 C48.6263606,17.5097448 48.4469871,17.5924312 48.2589343,17.6562592 C48.0708814,17.7200873 47.8669165,17.7650571 47.6470393,17.7911686 C47.4271622,17.8172801 47.18414,17.8303358 46.917973,17.8303358 C46.4550737,17.8303358 46.0211057,17.7403962 45.6160688,17.5605171 C45.2110319,17.380638 44.8566247,17.1180725 44.5528471,16.7728207 C44.2490694,16.4275688 44.0089404,16.0025319 43.8324601,15.4977099 C43.6559797,14.9928878 43.5677396,14.4155339 43.5677396,13.7656481 C43.5677396,13.144775 43.6559797,12.5848287 43.8324601,12.0858093 C44.0089404,11.5867898 44.2548557,11.1617529 44.5702058,10.8106985 C44.8855559,10.4596441 45.2631081,10.1898254 45.7028624,10.0012424 C46.1426167,9.8126595 46.6286609,9.71836803 47.1609951,9.71836803 C47.4676658,9.71836803 47.7352795,9.74157824 47.963836,9.78799866 C48.1923925,9.83441907 48.3920178,9.89099396 48.5627119,9.9577233 C48.733406,10.0244527 48.8809552,10.0969846 49.0053593,10.175319 C49.1297635,10.2536535 49.2440418,10.3261854 49.3481941,10.3929147 C49.4523464,10.4596441 49.5507125,10.5162189 49.6432924,10.5626394 C49.7358722,10.6090598 49.8342383,10.63227 49.9383907,10.63227 C50.0946192,10.63227 50.2161302,10.5989053 50.3029238,10.532176 C50.3897174,10.4654466 50.4649386,10.3914641 50.5285872,10.3102283 L50.5285872,10.3102283 L51.5180344,8.97854265 C51.2807985,8.72903291 51.0088452,8.50128274 50.7021744,8.29529214 C50.3955037,8.08930154 50.0599017,7.91232371 49.6953686,7.76435863 C49.3308354,7.61639355 48.9388176,7.50034251 48.5193151,7.41620551 C48.0998127,7.3320685 47.6528256,7.29 47.1783538,7.29 C46.2004791,7.29 45.3065049,7.44957018 44.4964312,7.76871054 C43.6863575,8.08785091 42.990562,8.53464741 42.4090448,9.10910007 C41.8275276,9.68355272 41.3747543,10.3668032 41.0507248,11.1588516 C40.7266953,11.9508999 40.5646806,12.8198321 40.5646806,13.7656481 C40.5646806,14.6940564 40.7064435,15.5542848 40.9899693,16.3463331 C41.2734951,17.1383815 41.6799785,17.8230826 42.2094195,18.4004365 C42.7388606,18.9777905 43.3840264,19.4303895 44.1449171,19.7582337 C44.9058077,20.0860779 45.7665111,20.25 46.727027,20.25 Z M58.1317076,20.25 C59.1790172,20.25 60.0860104,20.0802754 60.8526873,19.7408261 C61.6193643,19.4013768 62.2572973,18.8980054 62.7664865,18.2307119 L62.7664865,18.2307119 L61.6034521,17.0034721 C61.5398034,16.9396441 61.4732617,16.8946743 61.4038268,16.8685628 C61.3343919,16.8424513 61.264957,16.8293956 61.1955221,16.8293956 C61.1087285,16.8293956 61.024828,16.8482539 60.9438206,16.8859704 C60.8628133,16.923687 60.7875921,16.9715581 60.7181572,17.0295836 C60.54457,17.18045 60.3724294,17.3066555 60.2017353,17.4082001 C60.0310412,17.5097448 59.8516677,17.5924312 59.6636149,17.6562592 C59.475562,17.7200873 59.2715971,17.7650571 59.0517199,17.7911686 C58.8318428,17.8172801 58.5888206,17.8303358 58.3226536,17.8303358 C57.8597543,17.8303358 57.4257862,17.7403962 57.0207494,17.5605171 C56.6157125,17.380638 56.2613053,17.1180725 55.9575276,16.7728207 C55.65375,16.4275688 55.413621,16.0025319 55.2371407,15.4977099 C55.0606603,14.9928878 54.9724201,14.4155339 54.9724201,13.7656481 C54.9724201,13.144775 55.0606603,12.5848287 55.2371407,12.0858093 C55.413621,11.5867898 55.6595362,11.1617529 55.9748864,10.8106985 C56.2902365,10.4596441 56.6677887,10.1898254 57.107543,10.0012424 C57.5472973,9.8126595 58.0333415,9.71836803 58.5656757,9.71836803 C58.8723464,9.71836803 59.1399601,9.74157824 59.3685166,9.78799866 C59.5970731,9.83441907 59.7966984,9.89099396 59.9673925,9.9577233 C60.1380866,10.0244527 60.2856357,10.0969846 60.4100399,10.175319 C60.5344441,10.2536535 60.6487224,10.3261854 60.7528747,10.3929147 C60.857027,10.4596441 60.9553931,10.5162189 61.047973,10.5626394 C61.1405528,10.6090598 61.2389189,10.63227 61.3430713,10.63227 C61.4992998,10.63227 61.6208108,10.5989053 61.7076044,10.532176 C61.794398,10.4654466 61.8696192,10.3914641 61.9332678,10.3102283 L61.9332678,10.3102283 L62.922715,8.97854265 C62.6854791,8.72903291 62.4135258,8.50128274 62.106855,8.29529214 C61.8001843,8.08930154 61.4645823,7.91232371 61.1000491,7.76435863 C60.735516,7.61639355 60.3434982,7.50034251 59.9239957,7.41620551 C59.5044932,7.3320685 59.0575061,7.29 58.5830344,7.29 C57.6051597,7.29 56.7111855,7.44957018 55.9011118,7.76871054 C55.0910381,8.08785091 54.3952426,8.53464741 53.8137254,9.10910007 C53.2322082,9.68355272 52.7794349,10.3668032 52.4554054,11.1588516 C52.1313759,11.9508999 51.9693612,12.8198321 51.9693612,13.7656481 C51.9693612,14.6940564 52.1111241,15.5542848 52.3946499,16.3463331 C52.6781757,17.1383815 53.0846591,17.8230826 53.6141001,18.4004365 C54.1435412,18.9777905 54.788707,19.4303895 55.5495977,19.7582337 C56.3104883,20.0860779 57.1711916,20.25 58.1317076,20.25 Z M65.3702948,20.1107388 C65.613317,20.1107388 65.8187285,20.04546 65.9865295,19.9149026 C66.1543305,19.7843452 66.2671622,19.6378308 66.3250246,19.4753593 L66.3250246,19.4753593 L67.0714496,17.264587 L71.8798157,17.264587 L72.6262408,19.4753593 C72.6898894,19.661041 72.8041677,19.813358 72.9690756,19.9323103 C73.1339834,20.0512626 73.3437346,20.1107388 73.5983292,20.1107388 L73.5983292,20.1107388 L75.8723219,20.1107388 L70.9771622,7.42926125 L67.9741032,7.42926125 L63.0789435,20.1107388 L65.3702948,20.1107388 Z M71.2028256,15.2627065 L67.7484398,15.2627065 L68.9114742,11.8072868 C68.9982678,11.5867898 69.0908477,11.3256749 69.1892138,11.0239422 C69.2875799,10.7222095 69.3830528,10.3943653 69.4756327,10.0404097 C69.5739988,10.3885628 69.6738114,10.7120551 69.7750706,11.0108865 C69.8763299,11.3097179 69.96457,11.5693821 70.0397912,11.7898791 L70.0397912,11.7898791 L71.2028256,15.2627065 Z M79.4829361,20.1107388 L79.4829361,12.8169308 C79.4829361,12.6486568 79.4771499,12.4644258 79.4655774,12.2642377 C79.4540049,12.0640497 79.4366462,11.862411 79.4135012,11.6593217 L79.4135012,11.6593217 L82.7810934,18.1871927 C82.8852457,18.3902821 83.025562,18.5440497 83.2020424,18.6484956 C83.3785227,18.7529416 83.5795946,18.8051645 83.805258,18.8051645 L83.805258,18.8051645 L84.2045086,18.8051645 C84.430172,18.8051645 84.6312439,18.7529416 84.8077242,18.6484956 C84.9842045,18.5440497 85.1245209,18.3902821 85.2286732,18.1871927 L85.2286732,18.1871927 L88.5789066,11.6680255 C88.5441892,12.0800067 88.5268305,12.4629752 88.5268305,12.8169308 L88.5268305,12.8169308 L88.5268305,20.1107388 L91.1132801,20.1107388 L91.1132801,7.42926125 L88.8740049,7.42926125 C88.7467076,7.42926125 88.6353225,7.43216253 88.5398495,7.43796508 C88.4443765,7.44376763 88.3590295,7.46117529 88.2838084,7.49018805 C88.2085872,7.51920081 88.1405989,7.56417058 88.0798434,7.62509738 C88.0190878,7.68602418 87.9597789,7.77161182 87.9019165,7.88186031 L87.9019165,7.88186031 L84.6558354,14.2878778 C84.5401106,14.5141773 84.4272789,14.74773 84.3173403,14.9885359 C84.2074017,15.2293418 84.1032494,15.4774009 84.0048833,15.7327132 C83.9065172,15.4832035 83.8038114,15.2394963 83.696766,15.0015917 C83.5897205,14.763687 83.4783354,14.5344862 83.3626106,14.3139893 L83.3626106,14.3139893 L80.1078501,7.88186031 C80.0499877,7.77161182 79.9906787,7.68602418 79.9299232,7.62509738 C79.8691677,7.56417058 79.8011794,7.51920081 79.7259582,7.49018805 C79.6507371,7.46117529 79.56539,7.44376763 79.4699171,7.43796508 C79.3744441,7.43216253 79.263059,7.42926125 79.1357617,7.42926125 L79.1357617,7.42926125 L76.8964865,7.42926125 L76.8964865,20.1107388 L79.4829361,20.1107388 Z M98.247715,20.1107388 C99.0057125,20.1107388 99.6798096,20.013546 100.270006,19.8191605 C100.860203,19.624775 101.356373,19.3549563 101.758517,19.0097045 C102.16066,18.6644527 102.465885,18.2597246 102.674189,17.7955205 C102.882494,17.3313163 102.986646,16.8293956 102.986646,16.2897582 C102.986646,15.5760443 102.787021,14.9914372 102.38777,14.5359369 C101.98852,14.0804365 101.372285,13.7511417 100.539066,13.5480524 C100.920958,13.4087911 101.247881,13.244869 101.519834,13.0562861 C101.791787,12.8677032 102.014558,12.6573606 102.188145,12.4252586 C102.361732,12.1931565 102.489029,11.9450974 102.570037,11.6810813 C102.651044,11.4170651 102.691548,11.1428946 102.691548,10.8585695 C102.691548,10.3363398 102.603308,9.86343183 102.426827,9.43984553 C102.250347,9.01625923 101.968268,8.65650101 101.58059,8.36057085 C101.192912,8.0646407 100.692402,7.83543989 100.07906,7.67296844 C99.4657187,7.51049698 98.7221867,7.42926125 97.8484644,7.42926125 L97.8484644,7.42926125 L93.1963268,7.42926125 L93.1963268,20.1107388 L98.247715,20.1107388 Z M97.6575184,12.7647079 L96.1299509,12.7647079 L96.1299509,9.63132975 L97.8484644,9.63132975 C98.1782801,9.63132975 98.4632525,9.65744124 98.7033814,9.7096642 C98.9435104,9.76188717 99.1416892,9.84892545 99.2979177,9.97077905 C99.4541462,10.0926326 99.569871,10.2536535 99.6450921,10.4538415 C99.7203133,10.6540296 99.7579238,10.9049899 99.7579238,11.2067226 C99.7579238,11.5142579 99.7101873,11.7695702 99.6147144,11.9726595 C99.5192414,12.1757488 99.3803716,12.335319 99.198105,12.45137 C99.0158385,12.5674211 98.7945147,12.6486568 98.5341339,12.6950772 C98.2737531,12.7414976 97.9815479,12.7647079 97.6575184,12.7647079 L97.6575184,12.7647079 Z M98.1956388,17.8912626 L96.1299509,17.8912626 L96.1299509,14.731773 L98.1782801,14.731773 C98.5485995,14.731773 98.8552703,14.7665883 99.0982924,14.8362189 C99.3413145,14.9058496 99.5366001,15.0044929 99.6841493,15.1321491 C99.8316984,15.2598052 99.9358507,15.4164741 99.9966063,15.6021558 C100.057362,15.7878375 100.08774,15.9967293 100.08774,16.2288314 C100.08774,16.4319208 100.061701,16.6321088 100.009625,16.8293956 C99.9575491,17.0266823 99.8620762,17.2036602 99.7232064,17.3603291 C99.5843366,17.516998 99.3919441,17.6446541 99.1460289,17.7432975 C98.9001136,17.8419409 98.583317,17.8912626 98.1956388,17.8912626 L98.1956388,17.8912626 Z M110.502973,20.25 C111.486634,20.25 112.382055,20.0846273 113.189235,19.7538818 C113.996416,19.4231363 114.686425,18.9661854 115.259263,18.3830289 C115.832101,17.7998724 116.276195,17.1137206 116.591545,16.3245735 C116.906895,15.5354265 117.06457,14.6824513 117.06457,13.7656481 C117.06457,12.8546474 116.906895,12.0045735 116.591545,11.2154265 C116.276195,10.4262794 115.832101,9.74157824 115.259263,9.16132304 C114.686425,8.58106783 113.996416,8.12411686 113.189235,7.79047011 C112.382055,7.45682337 111.486634,7.29 110.502973,7.29 C109.519312,7.29 108.622445,7.45537273 107.812371,7.7861182 C107.002297,8.11686367 106.309395,8.572364 105.733664,9.15261921 C105.157933,9.73287441 104.712393,10.4175756 104.397042,11.2067226 C104.081692,11.9958697 103.924017,12.8488449 103.924017,13.7656481 C103.924017,14.6824513 104.081692,15.5354265 104.397042,16.3245735 C104.712393,17.1137206 105.157933,17.7998724 105.733664,18.3830289 C106.309395,18.9661854 107.002297,19.4231363 107.812371,19.7538818 C108.622445,20.0846273 109.519312,20.25 110.502973,20.25 Z M110.502973,17.8129281 C109.935921,17.8129281 109.431072,17.7215379 108.988424,17.5387576 C108.545777,17.3559772 108.172564,17.0905104 107.868787,16.7423573 C107.565009,16.3942042 107.332113,15.9691672 107.170098,15.4672465 C107.008084,14.9653257 106.927076,14.3981263 106.927076,13.7656481 C106.927076,13.1389725 107.008084,12.5746743 107.170098,12.0727535 C107.332113,11.5708328 107.565009,11.1457958 107.868787,10.7976427 C108.172564,10.4494896 108.545777,10.1825722 108.988424,9.99689053 C109.431072,9.81120887 109.935921,9.71836803 110.502973,9.71836803 C111.064238,9.71836803 111.564748,9.81120887 112.004502,9.99689053 C112.444257,10.1825722 112.816023,10.4494896 113.1198,10.7976427 C113.423578,11.1457958 113.656474,11.5708328 113.818489,12.0727535 C113.980504,12.5746743 114.061511,13.1389725 114.061511,13.7656481 C114.061511,14.3981263 113.980504,14.9653257 113.818489,15.4672465 C113.656474,15.9691672 113.423578,16.3942042 113.1198,16.7423573 C112.816023,17.0905104 112.444257,17.3559772 112.004502,17.5387576 C111.564748,17.7215379 111.064238,17.8129281 110.502973,17.8129281 Z M120.258575,20.1107388 C120.432162,20.1107388 120.576818,20.0628677 120.692543,19.9671256 C120.808268,19.8713835 120.900848,19.7625856 120.970283,19.640732 L120.970283,19.640732 L123.331069,15.5325252 C123.388931,15.4396844 123.441007,15.3294359 123.487297,15.2017797 L123.487297,15.2017797 L126.021671,19.640732 C126.091106,19.7683882 126.185132,19.8786367 126.30375,19.9714775 C126.422368,20.0643183 126.57715,20.1107388 126.768096,20.1107388 L126.768096,20.1107388 L129.70172,20.1107388 L125.648458,13.4610141 L129.614926,7.42926125 L126.802813,7.42926125 C126.554005,7.42926125 126.357273,7.55111484 126.212617,7.79482203 L126.212617,7.79482203 L124.008059,11.5896911 C123.961769,11.6651242 123.919819,11.7376561 123.882208,11.8072868 C123.844598,11.8769174 123.811327,11.9494493 123.782396,12.0248825 L123.782396,12.0248825 L121.265381,7.75130289 C121.195946,7.63525185 121.116385,7.55256548 121.026698,7.50324379 C120.937012,7.4539221 120.796695,7.42926125 120.605749,7.42926125 L120.605749,7.42926125 L117.672125,7.42926125 L121.586517,13.5915715 L117.515897,20.1107388 L120.258575,20.1107388 Z M139.804496,20.1107388 L139.804496,9.76188717 L143.363034,9.76188717 L143.363034,7.42926125 L133.312334,7.42926125 L133.312334,9.76188717 L136.870872,9.76188717 L136.870872,20.1107388 L139.804496,20.1107388 Z M151.261253,20.1107388 L156.33,7.42926125 L153.951855,7.42926125 C153.708833,7.42926125 153.503421,7.49453996 153.33562,7.62509738 C153.167819,7.7556548 153.054988,7.90216924 152.997125,8.0646407 L152.997125,8.0646407 L150.566904,14.8536266 C150.462752,15.1495567 150.357153,15.4715984 150.250107,15.8197515 C150.143062,16.1679046 150.049036,16.5334654 149.968028,16.9164338 C149.869662,16.5334654 149.764063,16.1679046 149.651232,15.8197515 C149.5384,15.4715984 149.427015,15.1495567 149.317076,14.8536266 L149.317076,14.8536266 L146.869496,8.0646407 C146.800061,7.87315648 146.684337,7.71938885 146.522322,7.60333781 C146.360307,7.48728677 146.152002,7.42926125 145.897408,7.42926125 L145.897408,7.42926125 L143.536622,7.42926125 L148.605369,20.1107388 L151.261253,20.1107388 Z" id="CCCAMBOXTV" fill="#FFFFFF" fill-rule="nonzero"></path>
            </g>
        </g>
    </g>
</svg>