<?xml version="1.0" encoding="UTF-8"?>
<svg width="58px" height="57px" viewBox="0 0 58 57" version="1.1" xmlns="http://www.w3.org/2000/svg" xmlns:xlink="http://www.w3.org/1999/xlink">
    <title>Group 19</title>
    <defs>
        <linearGradient x1="0%" y1="1.98%" x2="100%" y2="98.02%" id="linearGradient-1">
            <stop stop-color="#F2C314" offset="0%"></stop>
            <stop stop-color="#FC3832" offset="100%"></stop>
        </linearGradient>
        <path d="M17.7677244,-1.62467147e-15 L32.2322756,-1.88996806e-16 C38.4105004,1.09812587e-16 40.6508741,0.643281485 42.9095407,1.85122964 C45.1682074,3.05917779 46.9408222,4.83179261 48.1487704,7.09045927 C49.3567185,9.34912594 50,11.5894996 50,17.7677244 L50,31.2322756 C50,37.4105004 49.3567185,39.6508741 48.1487704,41.9095407 C46.9408222,44.1682074 45.1682074,45.9408222 42.9095407,47.1487704 C40.6508741,48.3567185 38.4105004,49 32.2322756,49 L17.7677244,49 C11.5894996,49 9.34912594,48.3567185 7.09045927,47.1487704 C4.83179261,45.9408222 3.05917779,44.1682074 1.85122964,41.9095407 C0.643281485,39.6508741 8.04952858e-16,37.4105004 -1.38539236e-15,31.2322756 L-4.28275917e-16,17.7677244 C2.48840641e-16,11.5894996 0.643281485,9.34912594 1.85122964,7.09045927 C3.05917779,4.83179261 4.83179261,3.05917779 7.09045927,1.85122964 C9.34912594,0.643281485 11.5894996,9.43980913e-16 17.7677244,-1.62467147e-15 Z" id="path-2"></path>
        <filter x="-14.0%" y="-10.2%" width="128.0%" height="128.6%" filterUnits="objectBoundingBox" id="filter-3">
            <feOffset dx="0" dy="2" in="SourceAlpha" result="shadowOffsetOuter1"></feOffset>
            <feGaussianBlur stdDeviation="2" in="shadowOffsetOuter1" result="shadowBlurOuter1"></feGaussianBlur>
            <feColorMatrix values="0 0 0 0 0.501960784   0 0 0 0 0.125490196   0 0 0 0 0  0 0 0 0.15 0" type="matrix" in="shadowBlurOuter1"></feColorMatrix>
        </filter>
    </defs>
    <g id="Desktop" stroke="none" stroke-width="1" fill="none" fill-rule="evenodd">
        <g id="Home-Light-" transform="translate(-497.000000, -1122.000000)">
            <g id="Group-35" transform="translate(202.000000, 1094.000000)">
                <g id="Group-19" transform="translate(299.000000, 30.000000)">
                    <g id="Rectangle-9">
                        <use fill="black" fill-opacity="1" filter="url(#filter-3)" xlink:href="#path-2"></use>
                        <use fill="url(#linearGradient-1)" fill-rule="evenodd" xlink:href="#path-2"></use>
                    </g>
                    <path d="M24.5540541,32.7499699 L24.5540541,30.1224746 C23.4536702,29.9236995 22.6216216,29.0030476 22.6216216,27.8973334 C22.6216216,27.4390771 22.7645372,27.0126078 23.0102398,26.6561393 L20.6891892,25.0274996 L18.3681386,26.6561393 C18.6138411,27.0126078 18.7567568,27.4390771 18.7567568,27.8973334 C18.7567568,28.3588821 18.6117801,28.7881856 18.3628266,29.1462002 L23.6422663,33.1152948 C23.9109927,32.9370566 24.2201711,32.810283 24.5540541,32.7499699 Z M25.4459459,32.7499699 C25.7798289,32.810283 26.0890073,32.9370566 26.3577337,33.1152948 L31.6371734,29.1462002 C31.3882199,28.7881856 31.2432432,28.3588821 31.2432432,27.8973334 C31.2432432,27.4390771 31.3861589,27.0126078 31.6318614,26.6561393 L29.3108108,25.0274996 L26.9897602,26.6561393 C27.2354628,27.0126078 27.3783784,27.4390771 27.3783784,27.8973334 C27.3783784,29.0030476 26.5463298,29.9236995 25.4459459,30.1224746 L25.4459459,32.7499699 Z M26.9844482,33.7262443 C27.2334017,34.0842589 27.3783784,34.5135623 27.3783784,34.9751111 C27.3783784,36.2259747 26.3135421,37.24 25,37.24 C23.6864579,37.24 22.6216216,36.2259747 22.6216216,34.9751111 C22.6216216,34.5135623 22.7665983,34.0842589 23.0155518,33.7262443 L17.7361121,29.7571497 C17.3511251,30.0125 16.8831126,30.1622222 16.3783784,30.1622222 C15.0648363,30.1622222 14,29.1481969 14,27.8973334 C14,26.7916192 14.8320486,25.8709672 15.9324324,25.672192 L15.9324324,23.327808 C14.8320486,23.1290328 14,22.2083808 14,21.1026666 C14,19.8518031 15.0648363,18.8377778 16.3783784,18.8377778 C16.8831126,18.8377778 17.3511251,18.9875 17.7361121,19.2428503 L23.0155518,15.2737557 C22.7665983,14.9157411 22.6216216,14.4864377 22.6216216,14.0248889 C22.6216216,12.7740253 23.6864579,11.76 25,11.76 C26.3135421,11.76 27.3783784,12.7740253 27.3783784,14.0248889 C27.3783784,14.4864377 27.2334017,14.9157411 26.9844482,15.2737557 L32.2638879,19.2428503 C32.6488749,18.9875 33.1168874,18.8377778 33.6216216,18.8377778 C34.9351637,18.8377778 36,19.8518031 36,21.1026666 C36,22.2083808 35.1679514,23.1290328 34.0675676,23.327808 L34.0675676,25.672192 C35.1679514,25.8709672 36,26.7916192 36,27.8973334 C36,29.1481969 34.9351637,30.1622222 33.6216216,30.1622222 C33.1168874,30.1622222 32.6488749,30.0125 32.2638879,29.7571497 L26.9844482,33.7262443 Z M17.74131,26.0409743 L19.9374248,24.5 L17.74131,22.9590257 C17.4713755,23.139082 17.1603622,23.2671055 16.8243243,23.327808 L16.8243243,25.672192 C17.1603622,25.7328945 17.4713755,25.860918 17.74131,26.0409743 Z M18.3681386,22.3438607 L20.6891892,23.9725004 L23.0102398,22.3438607 C22.7645372,21.9873922 22.6216216,21.5609229 22.6216216,21.1026666 C22.6216216,19.9969524 23.4536702,19.0763005 24.5540541,18.8775254 L24.5540541,16.2500301 C24.2201711,16.189717 23.9109927,16.0629434 23.6422663,15.8847052 L18.3628266,19.8537998 C18.6117801,20.2118144 18.7567568,20.6411179 18.7567568,21.1026666 C18.7567568,21.5609229 18.6138411,21.9873922 18.3681386,22.3438607 Z M32.25869,26.0409743 C32.5286245,25.860918 32.8396378,25.7328945 33.1756757,25.672192 L33.1756757,23.327808 C32.8396378,23.2671055 32.5286245,23.139082 32.25869,22.9590257 L30.0625752,24.5 L32.25869,26.0409743 Z M31.6371734,19.8537998 L26.3577337,15.8847052 C26.0890073,16.0629434 25.7798289,16.189717 25.4459459,16.2500301 L25.4459459,18.8775254 C26.5463298,19.0763005 27.3783784,19.9969524 27.3783784,21.1026666 C27.3783784,21.5609229 27.2354628,21.9873922 26.9897602,22.3438607 L29.3108108,23.9725004 L31.6318614,22.3438607 C31.3861589,21.9873922 31.2432432,21.5609229 31.2432432,21.1026666 C31.2432432,20.6411179 31.3882199,20.2118144 31.6371734,19.8537998 Z M23.6370683,26.0409743 C24.0230373,25.7835187 24.492992,25.6324445 25,25.6324445 C25.507008,25.6324445 25.9769627,25.7835187 26.3629317,26.0409743 L28.5590464,24.5 L26.3629317,22.9590257 C25.9769627,23.2164813 25.507008,23.3675555 25,23.3675555 C24.492992,23.3675555 24.0230373,23.2164813 23.6370683,22.9590257 L21.4409536,24.5 L23.6370683,26.0409743 Z M25,22.5182222 C25.8209638,22.5182222 26.4864865,21.8844564 26.4864865,21.1026666 C26.4864865,20.3208769 25.8209638,19.6871111 25,19.6871111 C24.1790362,19.6871111 23.5135135,20.3208769 23.5135135,21.1026666 C23.5135135,21.8844564 24.1790362,22.5182222 25,22.5182222 Z M25,29.3128889 C25.8209638,29.3128889 26.4864865,28.6791231 26.4864865,27.8973334 C26.4864865,27.1155436 25.8209638,26.4817778 25,26.4817778 C24.1790362,26.4817778 23.5135135,27.1155436 23.5135135,27.8973334 C23.5135135,28.6791231 24.1790362,29.3128889 25,29.3128889 Z M33.6216216,22.5182222 C34.4425854,22.5182222 35.1081081,21.8844564 35.1081081,21.1026666 C35.1081081,20.3208769 34.4425854,19.6871111 33.6216216,19.6871111 C32.8006578,19.6871111 32.1351351,20.3208769 32.1351351,21.1026666 C32.1351351,21.8844564 32.8006578,22.5182222 33.6216216,22.5182222 Z M33.6216216,29.3128889 C34.4425854,29.3128889 35.1081081,28.6791231 35.1081081,27.8973334 C35.1081081,27.1155436 34.4425854,26.4817778 33.6216216,26.4817778 C32.8006578,26.4817778 32.1351351,27.1155436 32.1351351,27.8973334 C32.1351351,28.6791231 32.8006578,29.3128889 33.6216216,29.3128889 Z M16.3783784,22.5182222 C17.1993422,22.5182222 17.8648649,21.8844564 17.8648649,21.1026666 C17.8648649,20.3208769 17.1993422,19.6871111 16.3783784,19.6871111 C15.5574146,19.6871111 14.8918919,20.3208769 14.8918919,21.1026666 C14.8918919,21.8844564 15.5574146,22.5182222 16.3783784,22.5182222 Z M16.3783784,29.3128889 C17.1993422,29.3128889 17.8648649,28.6791231 17.8648649,27.8973334 C17.8648649,27.1155436 17.1993422,26.4817778 16.3783784,26.4817778 C15.5574146,26.4817778 14.8918919,27.1155436 14.8918919,27.8973334 C14.8918919,28.6791231 15.5574146,29.3128889 16.3783784,29.3128889 Z M25,36.3906666 C25.8209638,36.3906666 26.4864865,35.7569008 26.4864865,34.9751111 C26.4864865,34.1933214 25.8209638,33.5595555 25,33.5595555 C24.1790362,33.5595555 23.5135135,34.1933214 23.5135135,34.9751111 C23.5135135,35.7569008 24.1790362,36.3906666 25,36.3906666 Z M25,15.4404445 C25.8209638,15.4404445 26.4864865,14.8066786 26.4864865,14.0248889 C26.4864865,13.2430992 25.8209638,12.6093334 25,12.6093334 C24.1790362,12.6093334 23.5135135,13.2430992 23.5135135,14.0248889 C23.5135135,14.8066786 24.1790362,15.4404445 25,15.4404445 Z" id="Shape" fill="#FFFFFF" fill-rule="nonzero"></path>
                    <g id="machine-learning" transform="translate(14.000000, 11.760000)"></g>
                </g>
            </g>
        </g>
    </g>
</svg>