<?xml version="1.0" encoding="UTF-8"?>
<svg width="20px" height="20px" viewBox="0 0 20 20" version="1.1" xmlns="http://www.w3.org/2000/svg" xmlns:xlink="http://www.w3.org/1999/xlink">
    <title>sun</title>
    <g id="Symbols" stroke="none" stroke-width="1" fill="none" fill-rule="evenodd">
        <g id="sun" fill="#FFFFFF" fill-rule="nonzero">
            <path d="M10,4.99069973 C7.23782108,4.99069973 4.99069973,7.23826395 4.99069973,10.0004429 C4.99069973,12.7626218 7.23782108,15.010186 10,15.010186 C12.761736,15.010186 15.0093003,12.7630647 15.0093003,10.0004429 C15.0093003,7.23782108 12.761736,4.99069973 10,4.99069973 Z" id="Path"></path>
            <g id="Group">
                <path d="M10,3.51815766 C9.46014172,3.51815766 9.02258636,3.0806023 9.02258636,2.54118689 L9.02258636,0.97741364 C9.02258636,0.437555359 9.46014172,0 10,0 C10.5398583,0 10.9774136,0.437555359 10.9774136,0.97741364 L10.9774136,2.54118689 C10.9774136,3.0806023 10.5394154,3.51815766 10,3.51815766 Z" id="Path"></path>
                <path d="M10,16.4813995 C9.46014172,16.4813995 9.02258636,16.9189548 9.02258636,17.4588131 L9.02258636,19.0221435 C9.02258636,19.5624446 9.46014172,20 10,20 C10.5398583,20 10.9774136,19.5624446 10.9774136,19.0221435 L10.9774136,17.4588131 C10.9774136,16.9189548 10.5394154,16.4813995 10,16.4813995 Z" id="Path"></path>
                <path d="M14.5828167,5.41674048 C14.2015058,5.03498671 14.2015058,4.41629761 14.5828167,4.03454384 L15.6886625,2.92869796 C16.0699734,2.54738707 16.6891054,2.54738707 17.0708592,2.92869796 C17.4526129,3.31045173 17.4526129,3.9295837 17.0708592,4.3108946 L15.9650133,5.41674048 C15.5837024,5.79849424 14.9650133,5.79849424 14.5828167,5.41674048 Z" id="Path"></path>
                <path d="M5.41674048,14.5837024 C5.03498671,14.2015058 4.41629761,14.2015058 4.03454384,14.5837024 L2.92869796,15.6891054 C2.54738707,16.0704163 2.5469442,16.6899911 2.92869796,17.071302 C3.31045173,17.4526129 3.9295837,17.4526129 4.3108946,17.071302 L5.41674048,15.9650133 C5.79849424,15.5837024 5.79849424,14.9645704 5.41674048,14.5837024 Z" id="Path"></path>
                <path d="M16.4813995,10 C16.4813995,9.46014172 16.9189548,9.02258636 17.4588131,9.02258636 L19.0225864,9.02258636 C19.5624446,9.02258636 20,9.46014172 20,10 C20,10.5398583 19.5624446,10.9769708 19.0225864,10.9769708 L17.4588131,10.9769708 C16.9189548,10.9769708 16.4813995,10.5398583 16.4813995,10 Z" id="Path"></path>
                <path d="M3.51815766,10 C3.51815766,9.46014172 3.0806023,9.02258636 2.54074402,9.02258636 L0.97741364,9.02258636 C0.437555359,9.02258636 0,9.46014172 0,10 C0,10.5398583 0.437555359,10.9769708 0.97741364,10.9769708 L2.54118689,10.9769708 C3.0806023,10.9769708 3.51815766,10.5398583 3.51815766,10 Z" id="Path"></path>
                <path d="M14.5828167,14.5837024 C14.9645704,14.2023915 15.5837024,14.2023915 15.9650133,14.5837024 L17.0708592,15.6895483 C17.4526129,16.0704163 17.4526129,16.6899911 17.0708592,17.071302 C16.6891054,17.4526129 16.0704163,17.4526129 15.6886625,17.071302 L14.5828167,15.9654562 C14.2010629,15.5837024 14.2010629,14.9650133 14.5828167,14.5837024 Z" id="Path"></path>
                <path d="M5.41674048,5.41674048 C5.79849424,5.03498671 5.79849424,4.41629761 5.41674048,4.03454384 L4.3108946,2.92914083 C3.92914083,2.54738707 3.31045173,2.54738707 2.92869796,2.92914083 C2.5469442,3.31045173 2.5469442,3.9295837 2.92869796,4.3108946 L4.03454384,5.41674048 C4.41629761,5.79893711 5.03498671,5.79893711 5.41674048,5.41674048 Z" id="Path"></path>
            </g>
        </g>
    </g>
</svg>