<?xml version="1.0" encoding="UTF-8"?>
<svg width="154px" height="39px" viewBox="0 0 154 39" version="1.1" xmlns="http://www.w3.org/2000/svg" xmlns:xlink="http://www.w3.org/1999/xlink">
    <title>Group</title>
    <g id="Desktop" stroke="none" stroke-width="1" fill="none" fill-rule="evenodd">
        <g id="Home-Light-" transform="translate(-889.000000, -3925.000000)">
            <g id="Group-33" transform="translate(161.000000, 3469.000000)">
                <g id="Trust" transform="translate(236.000000, 456.725581)">
                    <g id="Group" transform="translate(492.000000, 0.000000)">
                        <path d="M40.2561404,13.3325581 L55.8362573,13.3325581 L55.8362573,16.2348837 L49.7122807,16.2348837 L49.7122807,32.6511628 L46.2900585,32.6511628 L46.2900585,16.2348837 L40.2561404,16.2348837 L40.2561404,13.3325581 L40.2561404,13.3325581 Z M55.025731,18.6837209 L57.9076023,18.6837209 L57.9076023,21.4953488 L57.9076023,21.4953488 C57.9976608,21.1325581 58.1777778,20.7697674 58.4479532,20.3162791 C58.7181287,19.9534884 59.0783626,19.6813953 59.348538,19.3186047 C59.7087719,19.0465116 60.0690058,18.7744186 60.6093567,18.5930233 C61.1497076,18.5023256 61.5099415,18.3209302 61.9602339,18.3209302 C62.3204678,18.3209302 62.5906433,18.3209302 62.6807018,18.3209302 C62.7707602,18.3209302 62.9508772,18.3209302 63.0409357,18.3209302 L63.0409357,21.4953488 C62.7707602,21.4953488 62.6807018,21.4046512 62.4105263,21.4046512 C62.1403509,21.4046512 61.8701754,21.4046512 61.780117,21.4046512 C61.2397661,21.4046512 60.7894737,21.4953488 60.2491228,21.6767442 C59.7087719,21.7674419 59.348538,22.2209302 59.0783626,22.5837209 C58.7181287,22.9465116 58.4479532,23.4906977 58.3578947,24.1255814 C58.0877193,24.7604651 58.0877193,25.3953488 58.0877193,26.1209302 L58.0877193,32.8325581 L55.1157895,32.8325581 L55.025731,18.6837209 L55.025731,18.6837209 Z M77.180117,32.6511628 L74.2081871,32.6511628 L74.2081871,30.7465116 L74.2081871,30.7465116 C73.8479532,31.472093 73.3076023,32.0162791 72.5871345,32.3790698 C71.8666667,32.7418605 71.0561404,33.0139535 70.3356725,33.0139535 C68.4444444,33.0139535 67.1836257,32.4697674 66.2830409,31.6534884 C65.5625731,30.7465116 65.0222222,29.3860465 65.0222222,27.4813953 L65.0222222,18.6837209 L67.994152,18.6837209 L67.994152,27.3 C67.994152,28.5697674 68.2643275,29.4767442 68.7146199,29.9302326 C69.2549708,30.4744186 69.8853801,30.655814 70.6959064,30.655814 C71.3263158,30.655814 71.8666667,30.5651163 72.3169591,30.3837209 C72.677193,30.1116279 73.0374269,29.8395349 73.3076023,29.6581395 C73.5777778,29.2953488 73.8479532,28.9325581 73.9380117,28.4790698 C74.0280702,27.9348837 74.0280702,27.4813953 74.0280702,26.9372093 L74.0280702,18.8651163 L77,18.8651163 C77.180117,18.8651163 77.180117,32.6511628 77.180117,32.6511628 Z M82.4035088,28.2069767 C82.4935673,29.1139535 82.7637427,29.7488372 83.394152,30.1116279 C84.0245614,30.4744186 84.6549708,30.655814 85.5555556,30.655814 C85.825731,30.655814 86.1859649,30.655814 86.5461988,30.5651163 C86.9064327,30.5651163 87.2666667,30.4744186 87.5368421,30.2930233 C87.897076,30.2023256 88.1672515,30.0209302 88.2573099,29.7488372 C88.5274854,29.4767442 88.5274854,29.2046512 88.5274854,28.7511628 C88.5274854,28.3883721 88.4374269,28.0255814 88.1672515,27.7534884 C87.897076,27.4813953 87.5368421,27.2093023 87.1766082,27.1186047 C86.8163743,27.027907 86.2760234,26.8465116 85.825731,26.755814 C85.3754386,26.6651163 84.6549708,26.4837209 84.2046784,26.3930233 C83.574269,26.3023256 83.0339181,26.1209302 82.5836257,25.8488372 C82.0432749,25.5767442 81.4128655,25.5767442 81.0526316,25.2139535 C80.6923977,24.9418605 80.3321637,24.5790698 80.0619883,24.0348837 C79.7918129,23.4906977 79.7017544,23.0372093 79.7017544,22.3116279 C79.7017544,21.5860465 79.9719298,20.9511628 80.2421053,20.4069767 C80.6023392,19.8627907 81.1426901,19.5 81.5929825,19.1372093 C82.2233918,18.8651163 82.7637427,18.5930233 83.4842105,18.5023256 C84.1146199,18.4116279 84.8350877,18.2302326 85.4654971,18.2302326 C86.1859649,18.2302326 86.8163743,18.3209302 87.4467836,18.5023256 C88.077193,18.5930233 88.7076023,18.8651163 89.1578947,19.227907 C89.6982456,19.5906977 90.148538,19.9534884 90.4187135,20.5883721 C90.7789474,21.1325581 91.0491228,21.8581395 91.0491228,22.5837209 L87.897076,22.5837209 C87.8070175,21.8581395 87.3567251,21.3139535 86.9064327,21.0418605 C86.3660819,20.7697674 85.7356725,20.6790698 85.1953216,20.6790698 C84.9251462,20.6790698 84.6549708,20.6790698 84.4748538,20.6790698 C84.2947368,20.6790698 83.8444444,20.7697674 83.574269,20.9511628 C83.3040936,21.0418605 83.0339181,21.2232558 82.9438596,21.3139535 C82.8538012,21.5860465 82.6736842,21.6767442 82.6736842,22.0395349 C82.6736842,22.4023256 82.7637427,22.6744186 83.0339181,22.9465116 C83.3040936,23.2186047 83.6643275,23.3093023 84.0245614,23.5813953 C84.3847953,23.672093 84.9251462,23.8534884 85.3754386,23.944186 C85.825731,24.0348837 86.5461988,24.2162791 86.9964912,24.3069767 C87.4467836,24.3976744 88.1672515,24.5790698 88.6175439,24.8511628 C89.1578947,25.1232558 89.6081871,25.2139535 89.9684211,25.5767442 C90.328655,25.8488372 90.6888889,26.2116279 90.9590643,26.755814 C91.2292398,27.3 91.3192982,27.7534884 91.3192982,28.4790698 C91.3192982,29.3860465 91.0491228,30.0209302 90.6888889,30.655814 C90.328655,31.2906977 89.7883041,31.6534884 89.1578947,32.0162791 C88.5274854,32.3790698 87.897076,32.6511628 87.1766082,32.7418605 C86.4561404,32.8325581 85.645614,33.0139535 85.0152047,33.0139535 C84.1146199,33.0139535 83.394152,32.9232558 82.6736842,32.7418605 C81.9532164,32.4697674 81.322807,32.1976744 80.7824561,31.8348837 C80.2421053,31.472093 79.7918129,30.927907 79.5216374,30.2930233 C79.251462,29.6581395 78.9812865,29.0232558 78.9812865,28.1162791 L82.4035088,28.2069767 L82.4035088,28.2069767 Z M92.4900585,18.6837209 L94.7415205,18.6837209 L94.7415205,14.5116279 L97.7134503,14.5116279 L97.7134503,18.6837209 L100.505263,18.6837209 L100.505263,20.9511628 L97.7134503,20.9511628 L97.7134503,28.3883721 C97.7134503,28.7511628 97.7134503,29.0232558 97.7134503,29.2953488 C97.7134503,29.5674419 97.8035088,29.6581395 97.9836257,29.9302326 C98.0736842,30.0209302 98.2538012,30.2023256 98.5239766,30.2930233 C98.794152,30.3837209 99.0643275,30.3837209 99.2444444,30.3837209 C99.4245614,30.3837209 99.6046784,30.3837209 99.8748538,30.3837209 C100.145029,30.3837209 100.235088,30.3837209 100.505263,30.2930233 L100.505263,32.6511628 C100.145029,32.6511628 99.8748538,32.7418605 99.5146199,32.7418605 C99.154386,32.7418605 98.8842105,32.7418605 98.5239766,32.7418605 C97.8035088,32.7418605 96.9929825,32.6511628 96.5426901,32.4697674 C96.0023392,32.3790698 95.6421053,32.1069767 95.3719298,31.8348837 C95.1017544,31.5627907 94.8315789,31.2 94.7415205,30.655814 C94.651462,30.1116279 94.5614035,29.7488372 94.5614035,29.2046512 L94.5614035,21.0418605 L92.3099415,21.0418605 L92.4900585,18.6837209 L92.4900585,18.6837209 Z M102.756725,18.6837209 L105.638596,18.6837209 L105.638596,20.5883721 L105.638596,20.5883721 C105.99883,19.8627907 106.62924,19.227907 107.349708,18.8651163 C108.070175,18.5023256 108.97076,18.3209302 109.871345,18.3209302 C111.042105,18.3209302 111.852632,18.5930233 112.753216,18.955814 C113.473684,19.3186047 114.284211,19.8627907 114.734503,20.5883721 C115.274854,21.3139535 115.635088,22.1302326 115.995322,22.9465116 C116.265497,23.8534884 116.355556,24.8511628 116.355556,25.8488372 C116.355556,26.755814 116.265497,27.7534884 115.995322,28.6604651 C115.725146,29.5674419 115.364912,30.2930233 114.824561,31.0186047 C114.284211,31.744186 113.653801,32.2883721 112.933333,32.6511628 C112.212865,33.0139535 111.312281,33.2860465 110.321637,33.2860465 C109.781287,33.2860465 109.421053,33.2860465 108.97076,33.1953488 C108.430409,33.1046512 108.070175,32.9232558 107.709942,32.8325581 C107.349708,32.7418605 106.989474,32.4697674 106.539181,32.1976744 C106.178947,31.9255814 105.908772,31.5627907 105.638596,31.2 L105.638596,31.2 L105.638596,37.9116279 L102.666667,37.9116279 L102.666667,18.6837209 L102.756725,18.6837209 Z M113.383626,25.6674419 C113.383626,25.0325581 113.293567,24.3976744 113.11345,23.7627907 C113.023392,23.127907 112.753216,22.5837209 112.392982,22.1302326 C112.032749,21.5860465 111.672515,21.2232558 111.132164,20.9511628 C110.591813,20.6790698 110.14152,20.5883721 109.511111,20.5883721 C108.250292,20.5883721 107.259649,21.1325581 106.62924,21.9488372 C105.99883,22.855814 105.638596,24.1255814 105.638596,25.4860465 C105.638596,26.2116279 105.728655,26.8465116 105.908772,27.4813953 C105.99883,28.1162791 106.269006,28.6604651 106.62924,29.0232558 C106.989474,29.3860465 107.349708,29.7488372 107.890058,30.0209302 C108.430409,30.2930233 108.880702,30.3837209 109.511111,30.3837209 C110.231579,30.3837209 110.77193,30.2930233 111.222222,30.0209302 C111.762573,29.7488372 112.122807,29.3860465 112.392982,28.8418605 C112.663158,28.2976744 112.933333,27.844186 113.023392,27.3 C113.383626,26.9372093 113.383626,26.3023256 113.383626,25.6674419 L113.383626,25.6674419 Z M118.877193,13.3325581 L121.849123,13.3325581 L121.849123,16.2348837 L118.877193,16.2348837 C118.877193,16.2348837 118.877193,13.3325581 118.877193,13.3325581 Z M118.877193,18.6837209 L121.849123,18.6837209 L121.849123,32.6511628 L118.877193,32.6511628 L118.877193,18.6837209 L118.877193,18.6837209 Z M124.640936,13.3325581 L127.612865,13.3325581 L127.612865,32.6511628 L124.640936,32.6511628 L124.640936,13.3325581 L124.640936,13.3325581 Z M137.069006,33.0139535 C135.898246,33.0139535 134.907602,32.7418605 134.097076,32.4697674 C133.196491,32.1069767 132.476023,31.5627907 131.845614,30.927907 C131.215205,30.2930233 130.854971,29.5674419 130.494737,28.6604651 C130.224561,27.7534884 129.954386,26.755814 129.954386,25.6674419 C129.954386,24.6697674 130.044444,23.672093 130.494737,22.7651163 C130.854971,21.8581395 131.215205,21.1325581 131.845614,20.4976744 C132.476023,19.8627907 133.196491,19.3186047 134.097076,18.955814 C134.997661,18.5930233 135.988304,18.4116279 137.069006,18.4116279 C138.149708,18.4116279 139.230409,18.6837209 140.040936,18.955814 C140.94152,19.3186047 141.661988,19.8627907 142.292398,20.4976744 C142.922807,21.1325581 143.283041,21.8581395 143.643275,22.7651163 C143.91345,23.672093 144.183626,24.6697674 144.183626,25.6674419 C144.183626,26.8465116 144.093567,27.6627907 143.643275,28.6604651 C143.373099,29.5674419 142.922807,30.2930233 142.292398,30.927907 C141.661988,31.5627907 140.94152,32.1069767 140.040936,32.4697674 C139.050292,32.9232558 138.149708,33.0139535 137.069006,33.0139535 L137.069006,33.0139535 Z M137.069006,30.655814 C137.699415,30.655814 138.329825,30.5651163 138.780117,30.2930233 C139.230409,30.0209302 139.680702,29.6581395 140.040936,29.1139535 C140.40117,28.5697674 140.581287,28.1162791 140.761404,27.4813953 C140.851462,26.8465116 141.031579,26.3023256 141.031579,25.7581395 C141.031579,25.1232558 140.94152,24.5790698 140.761404,24.0348837 C140.581287,23.4906977 140.40117,22.855814 140.040936,22.4023256 C139.680702,21.8581395 139.320468,21.4953488 138.780117,21.2232558 C138.239766,20.9511628 137.609357,20.8604651 137.069006,20.8604651 C136.528655,20.8604651 135.808187,20.9511628 135.357895,21.2232558 C134.817544,21.4953488 134.45731,21.8581395 134.097076,22.4023256 C133.736842,22.9465116 133.556725,23.4 133.376608,24.0348837 C133.28655,24.6697674 133.106433,25.2139535 133.106433,25.7581395 C133.106433,26.3930233 133.196491,27.027907 133.376608,27.4813953 C133.466667,28.1162791 133.736842,28.6604651 134.097076,29.1139535 C134.45731,29.6581395 134.817544,30.0209302 135.357895,30.2930233 C135.808187,30.4744186 136.348538,30.655814 137.069006,30.655814 L137.069006,30.655814 Z M144.994152,18.6837209 L147.245614,18.6837209 L147.245614,14.5116279 L150.217544,14.5116279 L150.217544,18.6837209 L153.009357,18.6837209 L153.009357,20.9511628 L150.397661,20.9511628 L150.397661,28.3883721 C150.397661,28.7511628 150.397661,29.0232558 150.397661,29.2953488 C150.397661,29.5674419 150.487719,29.6581395 150.667836,29.9302326 C150.757895,30.0209302 150.938012,30.2023256 151.208187,30.2930233 C151.478363,30.3837209 151.748538,30.3837209 151.928655,30.3837209 C152.108772,30.3837209 152.288889,30.3837209 152.559064,30.3837209 C152.82924,30.3837209 152.919298,30.3837209 153.189474,30.2930233 L153.189474,32.6511628 C152.82924,32.6511628 152.559064,32.7418605 152.19883,32.7418605 C151.838596,32.7418605 151.568421,32.7418605 151.208187,32.7418605 C150.487719,32.7418605 149.677193,32.6511628 149.226901,32.4697674 C148.68655,32.3790698 148.326316,32.1069767 148.05614,31.8348837 C147.785965,31.5627907 147.515789,31.2 147.425731,30.655814 C147.335673,30.1116279 147.335673,29.6581395 147.335673,29.1139535 L147.335673,20.9511628 L144.994152,20.9511628 L144.994152,18.6837209 L144.994152,18.6837209 Z" id="Shape" fill="#FFFFFF" fill-rule="nonzero"></path>
                        <polygon id="Path" fill="#00B67A" points="36.7438596 13.3325581 22.6947368 13.3325581 18.2818713 0 13.8690058 13.3325581 0 13.3325581 11.2573099 21.6767442 7.0245614 35.0093023 18.2818713 26.6651163 29.5391813 35.0093023 25.2163743 21.6767442"></polygon>
                        <polygon id="Path" fill="#005128" points="26.297076 24.6697674 25.3064327 21.6767442 18.2818713 26.8465116"></polygon>
                    </g>
                </g>
            </g>
        </g>
    </g>
</svg>